<?xml version="1.0" encoding="UTF-8"?>
<svg width="38px" height="50px" viewBox="0 0 38 50" version="1.1" xmlns="http://www.w3.org/2000/svg" xmlns:xlink="http://www.w3.org/1999/xlink">
    <!-- Generator: Sketch 58 (84663) - https://sketch.com -->
    <title>atletico-madrid-logo</title>
    <desc>Created with Sketch.</desc>
    <g id="Logos" stroke="none" stroke-width="1" fill="none" fill-rule="evenodd">
        <g id="Atletico" fill-rule="nonzero">
            <g id="atletico-madrid-logo">
                <path d="M37.924,5 C37.924,3 36.5306667,2.5 34.6391111,2.00833333 C24.3134257,-0.611798206 13.4839076,-0.611798206 3.15822222,2.00833333 C1.38488889,2.34166667 0,2.96666667 0,5 L0,32.2833333 L0,32.2833333 C0.0319808563,34.5338506 1.10127826,36.6473735 2.90488889,38.025 L17.8262222,49.1666667 L19,50 L20.14,49.1666667 L35.0444444,38.025 C36.8926743,36.6839949 37.9738274,34.5470386 37.9493333,32.2833333 L37.924,5 Z" id="path8" fill="#FFFFFF"></path>
                <path d="M5.93644444,31.2833333 L4.03644444,32.7833333 L2.00977778,34.2833333 C2.37369722,35.2530346 2.98439702,36.1139836 3.78311111,36.7833333 L3.78311111,36.7833333 L5.93644444,38.4083333 L5.93644444,31.2833333 Z" id="path10" fill="#CB3524"></path>
                <polygon id="polygon12" fill="#CB3524" points="11.1297778 27.4166667 11.1297778 27.4166667 11.1297778 42.2666667 16.3062222 46.2583333 16.3062222 23.425"></polygon>
                <polygon id="polygon14" fill="#CB3524" points="26.8026667 15.5666667 26.8026667 15.5666667 21.4911111 19.5583333 21.4911111 46.2583333 26.8026667 42.3916667"></polygon>
                <path d="M36.2773333,29.4166667 L36.2773333,8.33333333 L35.1373333,9.16666667 L31.9791111,11.5333333 L31.9791111,38.4 L34.1324444,36.775 L34.1324444,36.775 C34.5306542,36.5071766 34.8743834,36.1679701 35.1457778,35.775 C35.8778849,34.83596 36.2756242,33.6848047 36.2773333,32.5 L36.2773333,29.4166667 Z" id="path16" fill="#CB3524"></path>
                <path d="M37.924,5 C37.924,3 36.5306667,2.5 34.6391111,2.00833333 C24.3134257,-0.611798206 13.4839076,-0.611798206 3.15822222,2.00833333 C1.38488889,2.34166667 0,2.96666667 0,5 L0,32.2833333 L0,32.2833333 C0.0319808563,34.5338506 1.10127826,36.6473735 2.90488889,38.025 L17.8262222,49.1666667 L19,50 L20.14,49.1666667 L35.0444444,38.025 C36.8926743,36.6839949 37.9738274,34.5470386 37.9493333,32.2833333 L37.924,5 Z M33.4991111,4.75 L34.0057778,3.33333333 L34.5124444,4.70833333 L35.8888889,4.70833333 L34.7488889,5.54166667 L35.2555556,6.91666667 L34.1155556,6.08333333 L32.9755556,6.91666667 L32.9755556,6.91666667 L33.4822222,5.54166667 L32.3422222,4.70833333 L33.4991111,4.75 Z M23.1293333,8.825 C23.5136747,8.61171923 23.7894694,8.24883149 23.8893333,7.825 C25.536,8.325 27.4275556,7.325 27.0475556,5.58333333 L27.4444444,5.58333333 L28.5844444,5.70833333 L29.7244444,5.95833333 L19.7346667,13.4583333 L19.7346667,8.45833333 C21.3813333,9.29166667 22.5128889,9.29166667 23.1124444,8.83333333 M25.1391111,15.9416667 L25.1391111,15.9416667 L23.9991111,15.1083333 L22.7324444,15.9416667 L23.2391111,14.5666667 L21.9724444,13.7333333 L23.4924444,13.7333333 L23.9991111,12.3583333 L24.5057778,13.7333333 L26.0257778,13.7333333 L24.8857778,14.5666667 L25.1391111,15.9416667 Z M16.6946667,2.71666667 L18.2146667,2.71666667 L18.7213333,1.34166667 L19,2.71666667 L20.52,2.71666667 L19.38,3.55 L19.7177778,5 L18.5777778,4.16666667 L17.3111111,5 L17.8177778,3.625 L16.6946667,2.71666667 Z M5.30311111,6.66666667 L5.30311111,6.66666667 L7.07644444,6.29166667 L8.86666667,5.95833333 C8.86666667,6.08333333 8.86666667,6.20833333 8.99333333,6.20833333 L8.99333333,6.20833333 C9.68348061,7.59057921 11.3183189,8.23734737 12.7848889,7.70833333 C13.2278058,8.41226731 13.9762821,8.87390974 14.8115556,8.95833333 C15.6197011,9.06669335 16.4424108,8.98093089 17.2097778,8.70833333 L17.2097778,15.325 L11.0115556,20.0666667 L11.0115556,19.4416667 C11.803399,18.9268824 12.3513975,18.1187049 12.5315556,17.2 C12.6964807,16.7634393 12.7345031,16.2900836 12.6413333,15.8333333 C12.5146667,15.8333333 12.388,15.9583333 12.2613333,15.9583333 L11.628,15.9583333 C12.067115,15.9809272 12.490742,15.7951259 12.768,15.4583333 L13.0213333,15.2083333 C13.5851586,14.713223 13.9803394,14.0584041 14.1528889,13.3333333 L15.4195556,10 C14.8901846,10.0206089 14.3900361,10.2449578 14.0262222,10.625 L13.5195556,11.375 L13.0128889,12.125 C12.8862222,12.375 12.6328889,12.5 12.5062222,12.625 L11.7462222,12 L11.6195556,12 L11.4,10.575 L11.9066667,9.74166667 C12.1605581,9.36266542 12.1605581,8.87066792 11.9066667,8.49166667 L11.5266667,8.49166667 L10.26,9.24166667 L10.1333333,9.11666667 L9.88,9.11666667 C9.75333333,9.11666667 9.62666667,9.24166667 9.5,9.36666667 L9.24666667,9.61666667 L8.86666667,9.86666667 L8.10666667,9.86666667 C7.85333333,9.86666667 7.72666667,10.2416667 7.98,10.6166667 C8.21439143,10.8998416 8.34791645,11.2512232 8.36,11.6166667 L8.36,11.6166667 L8.36,11.6666667 C8.46485854,12.0748194 8.50754884,12.4961053 8.48666667,12.9166667 C8.36977369,14.5746246 7.9251157,16.1939649 7.17777778,17.6833333 L7.05111111,17.8083333 L6.54444444,18.6416667 C6.4191423,18.7853981 6.4191423,18.9979353 6.54444444,19.1416667 C6.64545926,19.2378646 6.78514427,19.2838136 6.92444444,19.2666667 C7.24635735,19.8049691 7.46130688,20.3989086 7.55777778,21.0166667 C7.64189419,21.6022603 7.59871488,22.1988165 7.43111111,22.7666667 L6.41777778,23.5166667 L5.27777778,24.35 L5.30311111,6.66666667 Z M15.6728889,20.9333333 L14.5328889,21.7666667 L15.0395556,23.1416667 L13.8995556,22.3083333 L12.7595556,23.1416667 L13.2662222,21.7666667 L12.1262222,20.9333333 L13.6462222,20.9333333 L14.1528889,19.5583333 L14.6595556,20.9333333 L15.6728889,20.9333333 Z M0.878222222,4.70833333 L2.27155556,4.70833333 L2.77822222,3.33333333 L3.28488889,4.70833333 L4.80488889,4.70833333 L3.53822222,5.54166667 L4.04488889,6.91666667 L2.77822222,6.08333333 L1.51155556,6.91666667 L1.51155556,6.91666667 L2.01822222,5.54166667 L0.878222222,4.70833333 Z M4.64444444,16.4416667 L3.50444444,17.275 L3.88444444,18.65 L2.74444444,17.8166667 L1.47777778,18.65 L1.98444444,17.275 L0.844444444,16.4416667 L2.36444444,16.4416667 L2.87111111,15.0666667 L2.87111111,15.0666667 L3.37777778,16.4416667 L4.64444444,16.4416667 Z M1.51155556,31.0333333 L2.01822222,29.6583333 L0.878222222,28.825 L2.39822222,28.825 L2.77822222,27.45 L3.28488889,28.825 L4.80488889,28.825 L3.66488889,29.6583333 L4.17155556,31.0333333 L4.17155556,31.0333333 L3.03155556,30.2 L1.51155556,31.0333333 Z M35.1457778,35.775 C34.8743834,36.1679701 34.5306542,36.5071766 34.1324444,36.775 L34.1324444,36.775 L19,48.125 L3.8,36.775 L3.8,36.775 C2.92560559,36.1771136 2.29664011,35.2904141 2.02666667,34.275 L4.05333333,32.775 L5.95333333,31.275 L11.1382222,27.4083333 L16.3231111,23.5416667 L21.508,19.675 L26.676,15.8333333 L31.8608889,11.9666667 L36.2857778,8.725 L36.2857778,32.8916667 C36.2467469,33.9472642 35.844687,34.9582922 35.1457778,35.7583333" id="path18" fill="#272E61"></path>
            </g>
        </g>
    </g>
</svg>