<?xml version="1.0" encoding="UTF-8"?>
<svg width="81px" height="50px" viewBox="0 0 81 50" version="1.1" xmlns="http://www.w3.org/2000/svg" xmlns:xlink="http://www.w3.org/1999/xlink">
    <!-- Generator: Sketch 58 (84663) - https://sketch.com -->
    <title>zurich-seguros</title>
    <desc>Created with Sketch.</desc>
    <g id="Logos" stroke="none" stroke-width="1" fill="none" fill-rule="evenodd">
        <g id="Zurich">
            <g id="zurich-seguros">
                <path d="M37.4139,0.25 C30.0660429,0.25 24.1102286,6.23604651 24.1102286,13.6186047 C24.1102286,16.6674419 25.1262,19.4767442 26.8341429,21.7255814 L37.8952714,7.11976744 L36.7057286,7.12209302 L35.5231286,7.12209302 C34.2606857,7.12209302 33.0769286,7.20930233 32.2229571,7.37790698 C31.7057143,7.48023256 31.2440143,7.66860465 30.8679429,7.93372093 C30.4259143,8.24418605 29.8728,8.90465116 29.5140857,9.55232558 C29.4724286,9.62906977 29.4111,9.74186047 29.3335714,9.89651163 L28.6855714,9.75348837 L29.7698143,5.55697674 L43.6242857,5.55697674 L32.6163857,20.3465116 C33.3338143,20.2825581 33.6184714,20.2697674 34.1982,20.2697674 C34.6448571,20.2697674 35.3217857,20.2965116 36.2289857,20.3511628 L38.1857143,20.4674419 C38.8915714,20.5104651 39.4863429,20.5313953 39.9376286,20.5313953 C40.9489714,20.5313953 41.6050714,20.4534884 42.2553857,20.2534884 C42.7599,20.0988372 43.2412714,19.8651163 43.6798286,19.5627907 C44.4504857,19.0267442 45.2026286,18.1639535 45.6527571,17.3 C45.6978857,17.2139535 45.7684714,17.0825581 45.8517857,16.9034884 L46.4373,17.0569767 C46.2498429,17.7883721 46.1457,18.0674419 45.8541,18.7232558 C45.2616429,20.0511628 44.5962857,20.9406977 43.6775143,21.6232558 C42.7356,22.3244186 41.6895429,22.6697674 40.4548714,22.6883721 L40.2674143,22.6895349 C39.3521143,22.6895349 38.6439429,22.6127907 36.4557857,22.2767442 C34.2282857,21.9337209 33.0954429,21.8174419 31.9753286,21.8174419 C31.2243429,21.8174419 30.5277429,21.8732558 29.808,21.9895349 C28.8522,22.1453488 28.4772857,22.2581395 27.6094286,22.6546512 C30.0417429,25.3186047 33.534,26.9883721 37.4139,26.9883721 C44.7629143,26.9883721 50.7187286,21.0023256 50.7187286,13.6186047 C50.7187286,6.23604651 44.7629143,0.25 37.4139,0.25" id="Fill-1" fill="#145294"></path>
                <path d="M12.3177857,36.2534884 L2.13261429,36.2534884 L0.880585714,39.0302326 C1.29831429,38.8081395 1.46494286,38.7290698 1.82944286,38.5837209 C2.40801429,38.3511628 3.04444286,38.1697674 3.66004286,38.0616279 C4.19464286,37.9674419 4.68642857,37.9244186 5.48601429,37.9023256 C5.84357143,37.8930233 6.17798571,37.8872093 6.49157143,37.8872093 L7.99932857,37.8872093 L0.0752142857,49.2662791 L11.2763571,49.2662791 L12.5688857,46.2988372 C12.1199143,46.5569767 11.9579143,46.6418605 11.6154,46.7976744 C10.9650857,47.0930233 10.2522857,47.3139535 9.52212857,47.4418605 C8.94471429,47.5453488 8.2944,47.6011628 7.48671429,47.622093 C7.21594286,47.6290698 6.87111429,47.6325581 6.45107143,47.6325581 L4.46541429,47.6325581 L12.3177857,36.2534884" id="Fill-2" fill="#093566"></path>
                <path d="M45.9802286,49.2662791 C45.7788857,49.0895349 45.7094571,49.0069767 45.5798571,48.8081395 C45.4988571,48.677907 45.4317429,48.5465116 45.3819857,48.4104651 C45.2697429,48.1139535 45.2003143,47.6790698 45.2003143,47.2662791 L45.2003143,39.427907 L45.2061,38.6651163 C45.2118857,37.794186 45.2350286,37.5546512 45.3461143,37.2011628 C45.3889286,37.0616279 45.4491,36.9255814 45.5301,36.7953488 C45.6643286,36.5732558 45.7557429,36.4709302 46.0172571,36.2534884 L41.8584857,36.2534884 C42.1292571,36.4895349 42.2160429,36.5813953 42.3398571,36.7686047 C42.4278,36.9011628 42.4949143,37.0430233 42.5412,37.1906977 C42.6360857,37.5069767 42.6673286,37.8197674 42.6731143,38.5930233 C42.6765857,38.9895349 42.6777429,39.2511628 42.6777429,39.377907 L42.6777429,47.1697674 C42.6777429,47.6244186 42.5990571,48.1116279 42.4729286,48.4267442 C42.4185429,48.5593023 42.3514286,48.6872093 42.2669571,48.8081395 C42.1697571,48.9511628 42.1026429,49.027907 41.8735286,49.2662791 L45.9802286,49.2662791" id="Fill-3" fill="#093566"></path>
                <path d="M58.9876714,36.3709302 C58.6683,36.2686047 58.5421714,36.2348837 58.1973429,36.1604651 C57.4533,36.0011628 56.7358714,35.9302326 55.9200857,35.9302326 C54.5280429,35.9302326 53.3257714,36.1534884 52.2276429,36.6186047 C51.5761714,36.8965116 50.9779286,37.2523256 50.4479571,37.6813953 C48.8522571,38.9732558 47.9855571,40.844186 47.9855571,43.0011628 C47.9855571,45.0918605 48.8210143,46.9 50.3507571,48.1116279 C51.6120429,49.1116279 53.2355143,49.6186047 55.1899286,49.6186047 C56.4084,49.6186047 57.5435571,49.4360465 58.8222,49.0348837 C58.8696429,49.0186047 58.9402286,48.9976744 59.0328,48.9662791 L59.0328,46.6023256 C58.7226857,46.8104651 58.6162286,46.877907 58.4287714,46.9883721 C58.1776714,47.1337209 57.9138429,47.2662791 57.6338143,47.3860465 C56.8515857,47.7174419 56.1399429,47.8697674 55.3739143,47.8697674 C54.0304714,47.8697674 52.8849,47.3883721 52.0378714,46.4686047 C51.1989429,45.5581395 50.7441857,44.2930233 50.7441857,42.8616279 C50.7441857,41.4976744 51.1653857,40.2348837 51.9152143,39.3511628 C52.2380571,38.9686047 52.6361143,38.6430233 53.0897143,38.3872093 C53.8210286,37.9744186 54.6715286,37.7639535 55.5926143,37.7639535 C56.3852571,37.7639535 57.1524429,37.9186047 57.9207857,38.2325581 C58.3998429,38.4290698 58.5734143,38.5244186 58.9876714,38.8209302 L58.9876714,36.3709302" id="Fill-4" fill="#093566"></path>
                <path d="M70.3415571,43.3604651 L70.3415571,46.5348837 C70.3415571,47.2406977 70.3299857,47.4976744 70.2848571,47.8581395 C70.2605571,48.0581395 70.2142714,48.2476744 70.1471571,48.4209302 C70.0522714,48.6651163 69.8995286,48.8872093 69.6796714,49.1011628 C69.6414857,49.1395349 69.5801571,49.194186 69.4991571,49.2662791 L73.6394143,49.2662791 C73.4658429,49.0953488 73.4033571,49.0232558 73.2899571,48.8651163 C73.1869714,48.7197674 73.1071286,48.577907 73.0492714,48.4372093 C72.9243,48.1337209 72.8907429,47.9011628 72.8791714,47.2616279 C72.8733857,46.877907 72.8699143,46.6523256 72.8699143,46.5872093 L72.8791714,39.427907 L72.8791714,38.6546512 C72.8791714,38.0837209 72.9254571,37.6418605 73.0238143,37.2802326 C73.0689429,37.1104651 73.1372143,36.95 73.2274714,36.8 C73.3651714,36.5755814 73.4623714,36.4709302 73.7412429,36.2534884 L69.5153571,36.2534884 C69.7583571,36.4569767 69.8428286,36.5523256 69.9863143,36.7848837 C70.0812,36.9348837 70.1529429,37.0872093 70.2038571,37.2383721 C70.3033714,37.5430233 70.3415571,37.922093 70.3415571,38.6034884 L70.3415571,41.7674419 L64.5350143,41.7674419 L64.5350143,39.3918605 C64.5350143,38.6744186 64.5465857,38.2011628 64.5720429,37.8511628 C64.5870857,37.6360465 64.6218,37.4465116 64.6727143,37.2848837 C64.7664429,37.0023256 64.9990286,36.6151163 65.2119429,36.3930233 C65.2431857,36.3604651 65.2929429,36.3151163 65.3554286,36.2534884 L61.2059143,36.2534884 C61.4547,36.5104651 61.5206571,36.5872093 61.6340571,36.7523256 C61.7243143,36.8872093 61.7983714,37.0372093 61.8527571,37.1976744 C61.9684714,37.5255814 61.9858286,37.7046512 61.9974,38.572093 L62.0066571,39.3965116 L62.0066571,46.5186047 C62.0066571,47.2453488 61.9950857,47.5604651 61.9569,47.8895349 C61.9349143,48.0604651 61.8921,48.2337209 61.8284571,48.405814 C61.722,48.6883721 61.5692571,48.9116279 61.3308857,49.1372093 C61.2996429,49.1662791 61.2522,49.2093023 61.1874,49.2662791 L65.2848429,49.2662791 C65.1066429,49.0802326 65.0441571,49.0034884 64.9411714,48.8372093 C64.8636429,48.7151163 64.7930571,48.5790698 64.7363571,48.4302326 C64.6009714,48.0906977 64.5593143,47.844186 64.5454286,47.2930233 C64.5396429,47.0162791 64.5350143,46.7569767 64.5350143,46.5139535 L64.5350143,43.3604651 L70.3415571,43.3604651" id="Fill-5" fill="#093566"></path>
                <path d="M14.0812714,36.2534884 C14.3381571,36.4639535 14.4261,36.5616279 14.5533857,36.7802326 C14.6355429,36.9209302 14.6980286,37.0744186 14.7385286,37.2325581 C14.7871286,37.4290698 14.8149,37.6290698 14.8195286,37.8302326 C14.8241571,37.9732558 14.8276286,38.244186 14.8299429,38.6406977 L14.8357286,39.3918605 L14.8357286,43.1116279 C14.8357286,44.4267442 14.8449857,44.8790698 14.8866429,45.405814 C14.9595429,46.3395349 15.2546143,47.1162791 15.795,47.7976744 C16.3411714,48.4872093 17.0829,49.005814 17.9785286,49.3232558 C18.6751286,49.5686047 19.4562,49.6918605 20.3414143,49.6918605 C21.3145714,49.6918605 22.2645857,49.544186 22.9646571,49.2825581 C23.6971286,49.0069767 24.4029857,48.5337209 24.8924571,47.9837209 C25.4895429,47.3116279 25.8274286,46.4976744 25.9385143,45.4627907 C26.0056286,44.844186 26.0253,44.2872093 26.0253,43.1337209 L26.0253,39.3918605 L26.0206714,38.6546512 L26.0206714,38.5511628 C26.0206714,37.8953488 26.0739,37.4825581 26.1375429,37.2616279 C26.2717714,36.8023256 26.5066714,36.5313953 26.7184286,36.3674419 C26.7994286,36.3034884 26.8248857,36.2848837 26.8665429,36.2534884 L23.0306143,36.2534884 C23.1891429,36.4906977 23.2389,36.5918605 23.3129571,36.8209302 C23.3615571,36.9732558 23.3985857,37.1360465 23.4205714,37.3104651 C23.4807429,37.7732558 23.5027286,38.3593023 23.5027286,39.4686047 L23.5027286,43.5093023 C23.5027286,44.6337209 23.4749571,45.1965116 23.3951143,45.7162791 C23.3407286,46.0639535 23.2273286,46.3872093 23.0618571,46.6639535 C22.7343857,47.2093023 22.1639143,47.6104651 21.4673143,47.7813953 C21.1884429,47.8523256 20.8794857,47.8860465 20.5485429,47.8860465 C19.8797143,47.8860465 19.3034571,47.7476744 18.7896857,47.4627907 C18.4633714,47.2813953 18.1995429,47.0511628 18.0201857,46.7860465 C17.6649429,46.2662791 17.5608,45.7418605 17.5480714,44.4069767 L17.5330286,42.7686047 L17.5330286,39.4686047 C17.5330286,38.3604651 17.5561714,37.7593023 17.6151857,37.3104651 C17.6603143,36.9686047 17.7644571,36.6651163 17.9334,36.3709302 C17.9484429,36.3465116 17.9727429,36.305814 18.0039857,36.2534884 L14.0812714,36.2534884" id="Fill-6" fill="#093566"></path>
                <path d="M32.3282571,46.5906977 C32.3282571,46.8302326 32.3305714,47.0476744 32.3328857,47.2465116 C32.3444571,47.8465116 32.3884286,48.1616279 32.5029857,48.4465116 C32.5585286,48.5848837 32.6325857,48.7174419 32.724,48.844186 C32.8385571,49.0023256 32.8929429,49.0674419 33.0827143,49.2662791 L28.9644429,49.2662791 C29.2051286,49.0465116 29.2791857,48.9686047 29.3949,48.8127907 C29.4897857,48.6872093 29.5661571,48.5476744 29.6205429,48.4011628 C29.727,48.1151163 29.7698143,47.7593023 29.7698143,47.1430233 L29.7698143,38.6034884 C29.7698143,37.9127907 29.7327857,37.5093023 29.6413714,37.2186047 C29.5904571,37.0534884 29.5152429,36.8953488 29.4157286,36.744186 C29.2930714,36.555814 29.2097571,36.4639535 28.9794857,36.2534884 L32.3236286,36.2534884 C32.7367286,36.2534884 33.1371,36.2581395 33.5235857,36.2697674 C34.5546,36.2965116 35.1586286,36.3581395 35.7395143,36.4965116 C36.5668714,36.6918605 37.3097571,37.1046512 37.8420429,37.6662791 C38.4206143,38.2755814 38.7203143,39.0011628 38.7203143,39.8023256 C38.7203143,40.1383721 38.6659286,40.4767442 38.5594714,40.8046512 C38.3697,41.3918605 38.0503286,41.8581395 37.5400286,42.2872093 C37.0887429,42.6686047 36.5946429,42.955814 35.9443286,43.2162791 C35.7152143,43.3069767 35.6191714,43.3418605 35.3692286,43.4174419 L37.3803429,45.7918605 C37.6245,46.0802326 37.9392429,46.4360465 38.3245714,46.8546512 C38.9297571,47.5139535 39.3347571,47.9313953 39.7906714,48.3651163 C39.9873857,48.5511628 40.1736857,48.7209302 40.3507286,48.8744186 C40.5185143,49.0209302 40.6029857,49.0918605 40.8216857,49.2662791 L39.1970571,49.2662791 C38.9552143,49.2662791 38.7318857,49.2616279 38.5236,49.255814 C37.9623857,49.2372093 37.6094571,49.1534884 37.2368571,48.9523256 C36.8029286,48.7174419 36.3620571,48.3651163 35.8980429,47.8860465 C35.7545571,47.7360465 35.5439571,47.5023256 35.2674,47.1837209 C35.0220857,46.9023256 34.8427286,46.694186 34.7293286,46.5546512 L32.3282571,43.6639535 L32.3282571,46.5906977 Z M32.5388571,42.5732558 C32.7251571,42.5732558 32.9519571,42.5534884 33.2169429,42.5151163 C33.9123857,42.4127907 34.3833429,42.2593023 34.8473571,41.9848837 C35.0880429,41.8418605 35.2917,41.6767442 35.4513857,41.4953488 C35.7834857,41.1209302 35.9559,40.6197674 35.9559,40.027907 C35.9559,39.3488372 35.7279429,38.8034884 35.2882286,38.4290698 C35.0359714,38.2127907 34.7362714,38.0546512 34.4111143,37.9593023 C33.9216429,37.8174419 33.3037286,37.7406977 32.6661429,37.7406977 C32.5608429,37.7406977 32.4925714,37.7430233 32.3282571,37.7476744 L32.3282571,42.5674419 C32.4300857,42.572093 32.4740571,42.5732558 32.5388571,42.5732558 L32.5388571,42.5732558 Z" id="Fill-7" fill="#093566"></path>
                <path d="M77.1904962,33.4209302 L77.9319646,33.4209302 L77.9319646,33.4348837 L78.6082489,34.6174419 L79.1555231,34.6174419 L78.4439308,33.3581395 C78.6666429,33.327907 78.844541,33.2465116 78.9912051,33.1244186 C79.1174991,32.9965116 79.1867571,32.8302326 79.1867571,32.6395349 C79.1867571,32.3767442 79.0835491,32.1918605 78.863553,32.0651163 C78.6666429,31.9569767 78.3515868,31.894186 77.9319646,31.8790698 C77.9170266,31.8790698 77.8980146,31.8790698 77.8776445,31.8790698 L76.6989,31.8790698 L76.6989,34.6174419 L77.1904962,34.6174419 L77.1904962,33.4209302 Z M77.1904962,32.1593023 L77.7880165,32.1593023 C77.8477685,32.1593023 77.8776445,32.1593023 77.9319646,32.1709302 C78.1872687,32.1709302 78.3515868,32.2197674 78.4819548,32.2837209 C78.6299769,32.3581395 78.7005929,32.4837209 78.7005929,32.6767442 C78.7005929,32.8383721 78.6299769,32.9674419 78.5023248,33.044186 C78.3719568,33.0918605 78.1872687,33.1372093 77.9319646,33.1372093 C77.8776445,33.1372093 77.8477685,33.1372093 77.7880165,33.1372093 L77.1904962,33.1372093 L77.1904962,32.1593023 L77.1904962,32.1593023 Z" id="Fill-8" fill="#093566"></path>
                <path d="M76.0798286,34.9116279 C76.3101,35.1453488 76.5600429,35.3151163 76.8574286,35.4406977 C77.1351429,35.5662791 77.4290571,35.6267442 77.7495857,35.6267442 C77.7970286,35.6267442 77.8271143,35.6116279 77.8745571,35.6116279 C78.1360714,35.5965116 78.4045286,35.55 78.6521571,35.4406977 C78.9449143,35.3151163 79.2075857,35.1453488 79.4413286,34.9116279 C79.6600286,34.6918605 79.8312857,34.4465116 79.9354286,34.1476744 C80.0615571,33.872093 80.1228857,33.5709302 80.1228857,33.2465116 C80.1228857,32.9244186 80.0615571,32.6255814 79.9354286,32.3313953 C79.8312857,32.0383721 79.6600286,31.7813953 79.4413286,31.5674419 C79.2075857,31.3383721 78.9634286,31.1604651 78.6660429,31.0488372 C78.4207286,30.9418605 78.1569,30.8825581 77.8745571,30.8639535 C77.8271143,30.8639535 77.7970286,30.8639535 77.7495857,30.8639535 C77.4290571,30.8639535 77.1351429,30.9313953 76.8574286,31.0406977 C76.5600429,31.1604651 76.3101,31.3383721 76.0937143,31.5511628 C75.8819571,31.7813953 75.6933429,32.05 75.5683714,32.3453488 C75.4561286,32.6255814 75.3971143,32.9372093 75.3971143,33.2465116 C75.3971143,33.5581395 75.4445571,33.8523256 75.5683714,34.1476744 C75.6933429,34.4255814 75.8634429,34.6918605 76.0798286,34.9116279 Z M75.8183143,32.4360465 C75.9259286,32.1918605 76.0798286,31.9569767 76.2788571,31.7383721 C76.4825143,31.5511628 76.6989,31.3976744 76.9638857,31.2883721 C77.2103571,31.1965116 77.4684,31.1313953 77.7495857,31.1313953 C77.7970286,31.1313953 77.8271143,31.1313953 77.8745571,31.1313953 C78.1245,31.15 78.3594,31.2093023 78.5723143,31.2883721 C78.8187857,31.3976744 79.056,31.5511628 79.2527143,31.7546512 C79.4575286,31.9569767 79.5940714,32.1709302 79.7028429,32.4360465 C79.8104571,32.6872093 79.8636857,32.9674419 79.8636857,33.2465116 C79.8636857,33.5465116 79.8104571,33.8255814 79.7028429,34.0662791 C79.6137429,34.3232558 79.4575286,34.5406977 79.2527143,34.7244186 C79.056,34.9302326 78.8187857,35.0837209 78.5549571,35.1918605 C78.3420429,35.2837209 78.1071429,35.3313953 77.8745571,35.3476744 C77.8271143,35.3476744 77.7970286,35.3476744 77.7495857,35.3476744 C77.4684,35.3476744 77.2103571,35.3023256 76.9488429,35.1918605 C76.6989,35.0837209 76.4674714,34.9302326 76.2626571,34.7244186 C76.0601571,34.5406977 75.9108857,34.3069767 75.8183143,34.0430233 C75.7095429,33.7895349 75.6482143,33.5302326 75.6482143,33.2465116 C75.6482143,32.9674419 75.7095429,32.7011628 75.8183143,32.4360465 L75.8183143,32.4360465 Z" id="Fill-9" fill="#093566"></path>
            </g>
        </g>
    </g>
</svg>