<?xml version="1.0" encoding="UTF-8"?>
<svg width="186px" height="48px" viewBox="0 0 186 48" version="1.1" xmlns="http://www.w3.org/2000/svg" xmlns:xlink="http://www.w3.org/1999/xlink">
    <!-- Generator: Sketch 58 (84663) - https://sketch.com -->
    <title>cepsa</title>
    <desc>Created with Sketch.</desc>
    <g id="Logos" stroke="none" stroke-width="1" fill="none" fill-rule="evenodd">
        <g id="Cepsa" transform="translate(0.000000, -1.000000)" fill="#DA322A">
            <g id="cepsa">
                <path d="M109.690721,12.3521739 L90.0970349,12.3521739 L85.8612674,32.4282609 C85.2828721,35.1347826 87.0398023,37.5413043 90.0731163,37.5413043 L104.432977,37.5413043 L105.491919,32.4565217 L93.447814,32.4565217 C92.3475581,32.4565217 91.9409419,31.5630435 92.0953256,30.826087 C92.2975465,29.8326087 92.8215814,27.3565217 92.8215814,27.3565217 L105.626733,27.3565217 L106.653058,22.2434783 L93.900093,22.2434783 L94.9177209,17.4391304 L108.636128,17.4369565 L109.690721,12.3521739" id="Fill-1"></path>
                <path d="M80.3099767,12.3521136 L69.1182442,12.3521136 C66.3936977,12.3391304 63.8887674,14.85 63.3712558,17.426087 L60.2009535,32.4130435 C59.6138605,35.2826087 61.496907,37.5413043 64.2779884,37.5413043 L75.3827442,37.5413043 C77.9833488,37.5413043 80.836186,35.276087 81.3993605,32.4434783 L82.0342907,29.4695652 L76.1416163,29.4695652 L75.8502442,30.826087 C75.6045349,31.95 74.4912326,32.4565217 73.8997907,32.4565217 L67.7287907,32.4565217 C66.9090349,32.4565217 66.2610581,31.723913 66.437186,30.826087 L68.9377674,18.9521739 C68.9377674,18.9521739 69.2617558,17.4391304 70.8643023,17.4391304 L77.0222558,17.4391304 C78.0420581,17.4391304 78.4617209,18.4021739 78.326907,19.0782609 L78.0485814,20.4043478 L83.9434302,20.4043478 L84.5674884,17.4456522 C85.1502326,14.4413043 83.1997791,12.3391304 80.3099767,12.3521136" id="Fill-2"></path>
                <path d="M178.850279,19.0782609 L177.549977,25.2717391 L168.169535,25.2717391 L169.817744,17.4391304 L177.608686,17.4391304 C178.706767,17.4391304 178.956826,18.4891304 178.850279,19.0782609 Z M180.831174,12.3521739 L164.997058,12.3521739 L159.684953,37.5413043 L165.571105,37.5413043 L167.082326,30.3804348 L176.471465,30.3804348 L174.95807,37.5413043 L180.846395,37.5413043 L185.093035,17.4369565 C185.675779,14.6782609 183.899279,12.3521739 180.831174,12.3521739 L180.831174,12.3521739 Z" id="Fill-3"></path>
                <path d="M126.829488,23.5913043 C126.707721,24.0869565 126.133674,25.2108696 124.887733,25.2108696 L117.686058,25.2021739 L119.316872,17.4369565 L126.5055,17.4369565 C127.397012,17.4369565 127.936267,18.2717391 127.781884,19.0521739 L126.829488,23.5913043 Z M129.769302,12.3521739 L114.485314,12.3521739 L109.181907,37.5413043 L115.065884,37.5413043 L116.583628,30.3804348 L126.342419,30.3804348 C129.340942,30.3804348 131.885012,27.7065217 132.363384,25.273913 L134.007244,17.4630435 C134.603035,14.5304348 132.826535,12.3521739 129.769302,12.3521739 L129.769302,12.3521739 Z" id="Fill-4"></path>
                <path d="M155.075186,12.3521739 L144.431407,12.3521739 C141.404616,12.3521739 138.727907,14.55 138.134291,17.4521739 L137.177547,22.0173913 C136.65786,24.4543478 138.375651,26.126087 140.741419,26.4369565 L150.306686,27.9891304 C150.552395,28.0326087 151.154709,28.3021739 150.998151,29.026087 L150.630674,30.8065217 C150.413233,31.7413043 149.632616,32.4565217 148.586721,32.4565217 L142.502698,32.4565217 C141.526384,32.4565217 141.041488,31.673913 141.206744,30.8326087 L141.487244,29.4826087 L135.609791,29.4826087 L134.990081,32.4130435 C134.39864,35.25 136.292558,37.5413043 139.058419,37.5413043 L149.989221,37.5434783 C152.842058,37.5434783 155.579651,35.2608696 156.18414,32.4 L157.15393,27.8043478 C157.691012,24.9934783 155.838407,23.7804348 152.979047,23.3891304 L144.222663,21.9717391 C144.222663,21.9717391 143.150674,21.7782609 143.363767,20.5847826 L143.692105,19.1086957 C143.907372,18.1717391 144.920651,17.4543478 145.916535,17.4391304 L151.69614,17.4369565 C152.915988,17.4369565 153.216058,18.5478261 153.105163,19.0695652 L152.81814,20.4173913 L158.706465,20.4173913 L159.337047,17.4326087 C159.876302,14.7 158.262884,12.3521739 155.075186,12.3521739" id="Fill-5"></path>
                <path d="M26.875814,19.1782609 C26.3800465,21.4956522 22.8792326,23.9304348 19.7785116,23.9304348 L2.74194186,23.926087 C2.07874419,23.926087 1.52861628,23.423913 2.56798837,22.6065217 C3.22466279,22.0891304 8.01925581,18.3913043 8.36281395,18.1326087 C8.95860465,17.6782609 9.69790698,17.4391304 10.513314,17.4391304 L17.7671744,17.4391304 C18.273814,17.4391304 18.8565581,17.2304348 19.2979651,16.8869565 L27.2432907,10.7478261 C27.9717209,10.1869565 28.7153721,10.4478261 28.5348953,11.3086957 L26.875814,19.1782609" id="Fill-6"></path>
                <path d="M37.2282209,16.4130435 C37.1129767,16.9782609 37.2369186,17.4391304 38.2632442,17.4391304 L52.7383488,17.4391304 C53.3993721,17.4391304 53.9560233,17.9434783 52.9144767,18.7608696 C52.2534535,19.276087 47.4697326,22.9782609 47.1283488,23.2347826 C46.5282093,23.6869565 45.7932558,23.9282609 44.9778488,23.9282609 L35.0472791,23.9304348 C31.5725581,23.9304348 28.8262674,21.7173913 29.5546977,18.3152174 C30.1787558,15.3565217 30.9441512,11.6934783 31.5834302,8.67173913 C31.8661047,7.34347826 32.7402209,6.50217391 33.3577558,6.02391304 L39.1808488,1.53043478 C39.6613953,1.17173913 40.4246163,1.27391304 40.2354419,2.14347826 L37.2282209,16.4130435" id="Fill-7"></path>
                <path d="M26.5822674,39.1108696 C25.8538372,39.6717391 25.1080116,39.4108696 25.2928372,38.5478261 L26.9410465,30.7152174 C27.4324651,28.3978261 30.9354535,25.9630435 34.0383488,25.9630435 L51.0423023,25.9673913 C51.7033256,25.9673913 52.2556279,26.4717391 51.2184302,27.2869565 C50.557407,27.8043478 45.7693372,31.5065217 45.4257791,31.7630435 C44.8256395,32.2173913 44.0885116,32.4565217 43.2731047,32.4565217 L36.0170698,32.4565217 C35.5082558,32.4565217 34.9298605,32.6673913 34.4841047,33.0086957 L26.5822674,39.1108696" id="Fill-8"></path>
                <path d="M14.6207907,48.3586957 C14.1380698,48.7152174 13.3748488,48.6130435 13.5618488,47.7456522 L16.5647209,33.4891304 C16.6821395,32.9282609 16.5647209,32.4565217 15.5362209,32.4565217 L1.04372093,32.4543478 C0.384872093,32.4543478 -0.169604651,31.95 0.87194186,31.1326087 C1.52861628,30.6173913 6.31886047,26.9152174 6.6624186,26.6586957 C7.26255814,26.2043478 7.99968605,25.9630435 8.81726744,25.9630435 L18.767407,25.9630435 C22.2377791,25.9630435 24.9840698,28.1804348 24.2621628,31.5804348 C23.6381047,34.4891304 22.1551512,41.5369565 22.1551512,41.5369565 C21.8768256,42.8652174 20.7026395,43.6695652 20.0329186,44.1782609 L14.6207907,48.3586957" id="Fill-9"></path>
            </g>
        </g>
    </g>
</svg>