<?xml version="1.0" encoding="UTF-8"?>
<svg width="271px" height="36px" viewBox="0 0 271 36" version="1.1" xmlns="http://www.w3.org/2000/svg" xmlns:xlink="http://www.w3.org/1999/xlink">
    <!-- Generator: Sketch 58 (84663) - https://sketch.com -->
    <title>amadeus</title>
    <desc>Created with Sketch.</desc>
    <g id="Logos" stroke="none" stroke-width="1" fill="none" fill-rule="evenodd">
        <g id="Amadeus" transform="translate(0.000000, -7.000000)" fill="#0066A4">
            <path d="M171,41.3478645 C171,41.3478645 176.856731,43 184.339809,43 C192.308599,43 196,42.0991246 196,42.0991246 L196,36.098594 C196,36.098594 192.017172,36.900787 186.451868,36.900787 C181.582226,36.900787 178.580221,36.2482094 178.580221,36.2482094 L178.580221,27.7487842 L193.690524,27.7487842 L193.690524,21.7514369 L178.580221,21.7514369 L178.580221,13.6499248 C178.580221,13.6499248 181.532088,13.099213 185.963023,13.099213 C190.932941,13.099213 195.41088,13.8982227 195.41088,13.8982227 L195.41088,7.84994252 C195.41088,7.84994252 191.475056,7 185.07621,7 C176.562171,7 171,8.5502697 171,8.5502697 L171,41.3478645 Z M60.0972715,27.4080352 C59.8950208,27.9008161 59.6485278,28.8392969 59.5,29.3822976 C59.3514722,28.8392969 59.101819,27.9008161 58.9058887,27.4080352 L52.1526129,10.2015066 C51.0117928,7.34526051 49.2262988,7 45.9492061,7 C44.808386,7 42.4761831,7.1475204 42.4761831,7.1475204 L39,42 L46.6950054,42 L48.3825343,18.6352793 L55.6761986,36.3345888 C56.2229074,37.7156309 57.316325,38.2554928 59.5,38.2554928 C61.683675,38.2554928 62.7739325,37.7156309 63.3206413,36.3345888 L70.6174657,18.6352793 L72.3049946,42 L80,42 L76.5238169,7.1475204 C76.5238169,7.1475204 74.191614,7 73.0507939,7 C69.7737012,7 67.9882072,7.34526051 66.8442269,10.2015066 L60.0972715,27.4080352 Z M22,35.018746 C20.3743555,35.6813187 16.4295001,37 13.5202869,37 C10.3662856,37 8,35.8817065 8,32.3296703 C8,29.2301228 9.62564447,27.4524887 13.9659269,27.3005818 L22,27 L22,35.018746 Z M16.8693016,7 C10.0612886,7 4.73546291,8.69988505 2.66291283,9.75037581 L4.29269085,15.5471748 C4.29269085,15.5471748 9.52116946,13.6499248 14.6491608,13.6499248 C19.0391987,13.6499248 21.3064429,14.9009638 21.3064429,19.2971085 L21.3064429,21.8023698 L14.6491608,21.8023698 C3.35376286,21.8023698 0,27.0516403 0,32.8484393 C0,40.5488549 5.91932864,43 11.2953979,43 C17.5601516,43 21.2122361,40.35149 21.6518679,40.35149 C22.0004331,40.35149 23.2816459,41.748961 29,41.748961 L29,17.2502432 C29,9.89999116 24.5126151,7 16.8693016,7 Z M110,35.018746 C108.374356,35.6813187 104.4295,37 101.523425,37 C98.3662856,37 96,35.8817065 96,32.3296703 C96,29.2301228 97.6287828,27.4524887 101.965927,27.3005818 L110,27 L110,35.018746 Z M104.867475,7 C98.0601992,7 92.7349502,8.69988505 90.6657644,9.75037581 L92.2890862,15.5471748 C92.2890862,15.5471748 97.5201386,13.6499248 102.647575,13.6499248 C107.037137,13.6499248 109.304136,14.9009638 109.304136,19.2971085 L109.304136,21.8023698 L102.647575,21.8023698 C91.3533997,21.8023698 88,27.0516403 88,32.8484393 C88,40.5488549 93.9186877,43 99.2973149,43 C105.55825,43 109.206799,40.35149 109.649524,40.35149 C109.998051,40.35149 111.279125,41.748961 117,41.748961 L117,17.2502432 C117,9.89999116 112.509961,7 104.867475,7 Z M228.298235,33.6204191 C226.460565,34.5288453 222.484746,36.040749 218.860014,36.040749 C213.593715,36.040749 212.698602,33.6204191 212.698602,28.0735622 L212.698602,7 C212.698602,7 212.20202,7 211.55678,7 C209.817162,7 205.942557,7.30173874 205,7.5039679 L205,29.084708 C205,38.5124387 207.286807,43 216.721865,43 C223.927048,43 228.149577,40.1784218 228.446893,40.1784218 C228.544944,40.1784218 231.03418,41.7384753 236,41.7384753 L236,7.5039679 C235.455974,7.40445831 231.726865,7 229.838588,7 C229.142741,7 228.298235,7 228.298235,7 L228.298235,33.6204191 Z M245,41.748961 C245,41.748961 249.827977,43 256.564093,43 C262.951238,43 271,40.8480856 271,32.2499779 C271,26.6505438 266.825145,24.2503316 260.034602,21.8023698 C256.365595,20.4462817 253.24726,19.2461756 253.24726,16.7472809 C253.24726,15.5471748 254.153306,13.1978955 258.827607,13.1978955 C263.20096,13.1978955 267.679966,15.2001945 267.679966,15.2001945 L269.642532,9.45114511 C268.333087,8.79856751 264.058983,7 258.123261,7 C251.688093,7 245.403399,10.3997701 245.403399,17.2502432 C245.403399,24.3012645 251.838567,26.4499956 256.868243,28.0989477 C260.287526,29.248121 263.156138,30.4450438 263.156138,32.6988239 C263.156138,34.8984879 261.949144,36.8021045 256.163896,36.8021045 C251.43837,36.8021045 246.408694,35.7516138 246.408694,35.7516138 L245,41.748961 Z M137,13.6066604 C138.239259,13.3530828 140.667324,13 143.095388,13 C148.638944,13 153,16.1745352 153,24.7480273 C153,33.0679417 150.868348,37 142.401655,37 C139.677178,37 137,36.5923499 137,36.5923499 L137,13.6066604 Z M143.205652,7 C138.820526,7 132.741001,7.74807675 129,9.09779821 L129,41.9495092 C132.093704,42.6020868 137.874963,43 141.911056,43 C155.669311,43 161,37.5979309 161,24.7501105 C161,13.6499248 154.22241,7 143.205652,7 L143.205652,7 Z" id="amadeus"></path>
        </g>
    </g>
</svg>