<?xml version="1.0" encoding="UTF-8"?>
<svg width="158px" height="48px" viewBox="0 0 158 48" version="1.1" xmlns="http://www.w3.org/2000/svg" xmlns:xlink="http://www.w3.org/1999/xlink">
    <!-- Generator: Sketch 58 (84663) - https://sketch.com -->
    <title>finsa</title>
    <desc>Created with Sketch.</desc>
    <g id="Logos" stroke="none" stroke-width="1" fill="none" fill-rule="evenodd">
        <g id="Finsa" transform="translate(0.000000, -1.000000)">
            <g id="finsa">
                <path d="M26.7545233,26.0185185 C26.8765465,26.2055556 27.041093,26.3444444 27.2592558,26.4351852 C27.4718721,26.5277778 27.7381047,26.5740741 28.0505581,26.5740741 C28.302,26.5740741 28.5257093,26.5277778 28.7272326,26.4388889 C28.926907,26.3444444 29.0785116,26.2185185 29.1857442,26.0518519 C29.2911279,25.887037 29.346593,25.7111111 29.346593,25.5259259 C29.346593,25.337037 29.2966744,25.1703704 29.1968372,25.0259259 C29.1006977,24.8833333 28.9509419,24.762963 28.7438721,24.6685185 C28.6033605,24.6074074 28.3482209,24.5296296 27.972907,24.4462963 C27.5994419,24.3611111 27.370186,24.2759259 27.279593,24.1962963 C27.1908488,24.1148148 27.1446279,24.0111111 27.1446279,23.8833333 C27.1446279,23.7388889 27.2093372,23.6148148 27.3387558,23.5111111 C27.4644767,23.4092593 27.666,23.3592593 27.9451744,23.3592593 C28.211407,23.3592593 28.4147791,23.412963 28.5497442,23.5277778 C28.6847093,23.6425926 28.7660581,23.8148148 28.790093,24.037037 L29.2412093,24 C29.2319651,23.7925926 29.1746512,23.6055556 29.0674186,23.4444444 C28.9620349,23.2777778 28.8067326,23.1555556 28.6107558,23.0722222 C28.4147791,22.987037 28.1855233,22.9462963 27.926686,22.9462963 C27.6918837,22.9462963 27.4774186,22.9851852 27.2851395,23.0666667 C27.0928605,23.1462963 26.9486512,23.262963 26.8469651,23.4148148 C26.7452791,23.5722222 26.6972093,23.7351852 26.6972093,23.9148148 C26.6972093,24.0759259 26.7378837,24.2222222 26.8192326,24.3518519 C26.9024302,24.4833333 27.0263023,24.5925926 27.1908488,24.6796296 C27.3221163,24.75 27.5476744,24.8203704 27.8656744,24.9 C28.1855233,24.9777778 28.3907442,25.0333333 28.4850349,25.0685185 C28.6292442,25.1277778 28.7346279,25.1962963 28.7993372,25.2777778 C28.8640465,25.3592593 28.8936279,25.4555556 28.8936279,25.5648148 C28.8936279,25.6740741 28.8640465,25.7722222 28.7974884,25.8648148 C28.7309302,25.9592593 28.631093,26.0296296 28.4979767,26.0833333 C28.3611628,26.137037 28.2058605,26.162963 28.0320698,26.162963 C27.8323953,26.162963 27.6567558,26.1277778 27.495907,26.0574074 C27.3387558,25.987037 27.2204302,25.8962963 27.1446279,25.7833333 C27.0706744,25.6703704 27.0244535,25.5259259 27.0022674,25.3481481 L26.5622442,25.3851852 C26.5696395,25.6203704 26.6343488,25.8333333 26.7545233,26.0185185" id="Fill-1" fill="#D02139"></path>
                <path d="M32.3823837,24.0481481 C32.4655814,23.8277778 32.5284419,23.6 32.5746628,23.3759259 C32.6301279,23.562963 32.7114767,23.8074074 32.8205581,24.1037037 L33.1866279,25.0703704 L31.9941279,25.0703704 L32.3823837,24.0481481 Z M31.4801512,26.5166667 L31.8610116,25.4555556 L33.3271395,25.4555556 L33.7283372,26.5166667 L34.253407,26.5166667 L32.844593,23.0018519 L32.3306163,23.0018519 L30.982814,26.5166667 L31.4801512,26.5166667 L31.4801512,26.5166667 Z" id="Fill-2" fill="#D02139"></path>
                <polygon id="Fill-3" fill="#D02139" points="18.1167558 26.5166667 18.5845116 26.5166667 18.5845116 23.0018519 18.1167558 23.0018519"></polygon>
                <polyline id="Fill-4" fill="#D02139" points="12.9677442 26.5166667 12.9677442 24.9166667 14.6113605 24.9166667 14.6113605 24.5055556 12.9677442 24.5055556 12.9677442 23.4148148 14.8720465 23.4148148 14.8720465 23.0018519 12.4999884 23.0018519 12.4999884 26.5166667 12.9677442 26.5166667"></polyline>
                <polyline id="Fill-5" fill="#D02139" points="22.6538023 17.1759259 22.6538023 15.6685185 24.2105233 15.6685185 24.2105233 15.2796296 22.6538023 15.2796296 22.6538023 14.2518519 24.4545698 14.2518519 24.4545698 13.8648148 22.2119302 13.8648148 22.2119302 17.1759259 22.6538023 17.1759259"></polyline>
                <polygon id="Fill-6" fill="#D02139" points="23.0457558 21.7944444 23.4894767 21.7944444 23.4894767 18.4851852 23.0457558 18.4851852"></polygon>
                <polyline id="Fill-7" fill="#D02139" points="22.361686 26.4166667 22.361686 23.8166667 24.1051395 26.4166667 24.5599535 26.4166667 24.5599535 23.1037037 24.1347209 23.1037037 24.1347209 25.7055556 22.3912674 23.1037037 21.9364535 23.1037037 21.9364535 26.4166667 22.361686 26.4166667"></polyline>
                <path d="M22.101,30.5666667 C22.2156279,30.7388889 22.3746279,30.8703704 22.5761512,30.9592593 C22.7795233,31.0462963 23.0309651,31.0907407 23.3304767,31.0907407 C23.5671279,31.0907407 23.7778953,31.0462963 23.9646279,30.9592593 C24.1550581,30.8740741 24.2992674,30.7537037 24.4009535,30.5981481 C24.5007907,30.4425926 24.5525581,30.2777778 24.5525581,30.1 C24.5525581,29.9259259 24.5044884,29.7666667 24.4138953,29.6333333 C24.3214535,29.4962963 24.179093,29.3833333 23.9849651,29.2962963 C23.85,29.2351852 23.6096512,29.162963 23.2546744,29.0833333 C22.9015465,29.0037037 22.6815349,28.9240741 22.600186,28.8481481 C22.5132907,28.7722222 22.4726163,28.6740741 22.4726163,28.5555556 C22.4726163,28.4166667 22.5317791,28.3018519 22.6519535,28.2037037 C22.7721279,28.1074074 22.9625581,28.0555556 23.2269419,28.0555556 C23.4802326,28.0555556 23.6706628,28.112963 23.8000814,28.2185185 C23.9276512,28.3277778 24.0034535,28.4851852 24.0293372,28.6962963 L24.4508721,28.662963 C24.4434767,28.4685185 24.3917093,28.2907407 24.2900233,28.1388889 C24.190186,27.9833333 24.0441279,27.8685185 23.8592442,27.7888889 C23.6706628,27.7074074 23.4543488,27.6685185 23.2084535,27.6685185 C22.986593,27.6685185 22.7850698,27.7074074 22.6020349,27.7814815 C22.4208488,27.8574074 22.282186,27.9685185 22.1878953,28.112963 C22.0936047,28.2592593 22.0455349,28.4166667 22.0455349,28.5833333 C22.0455349,28.7351852 22.0862093,28.8740741 22.1620116,28.9962963 C22.2415116,29.1185185 22.3561395,29.2203704 22.5169884,29.3037037 C22.6390116,29.3685185 22.8497791,29.437037 23.1529884,29.5092593 C23.4543488,29.5833333 23.6484767,29.637037 23.7372209,29.6722222 C23.8758837,29.7222222 23.9720233,29.7888889 24.0367326,29.8685185 C24.0958953,29.9444444 24.1254767,30.0351852 24.1254767,30.1388889 C24.1254767,30.2407407 24.0958953,30.3333333 24.0330349,30.4203704 C23.9701744,30.5074074 23.8758837,30.5777778 23.748314,30.6240741 C23.6207442,30.6740741 23.4728372,30.7 23.3101395,30.7 C23.1197093,30.7 22.953314,30.6666667 22.8035581,30.6018519 C22.6519535,30.537037 22.5428721,30.45 22.4726163,30.3462963 C22.4005116,30.237037 22.3542907,30.1 22.3358023,29.9333333 L21.919814,29.9703704 C21.9253605,30.1907407 21.9863721,30.3888889 22.101,30.5666667" id="Fill-8" fill="#D02139"></path>
                <path d="M23.1529884,33.3296296 C23.2306395,33.1203704 23.2916512,32.9092593 23.3360233,32.6962963 C23.3877907,32.8740741 23.4654419,33.1018519 23.5689767,33.3796296 L23.9128605,34.2944444 L22.7869186,34.2944444 L23.1529884,33.3296296 Z M22.2988256,35.6555556 L22.6575,34.6518519 L24.0459767,34.6518519 L24.4249884,35.6555556 L24.9223256,35.6555556 L23.5874651,32.3462963 L23.1049186,32.3462963 L21.8292209,35.6555556 L22.2988256,35.6555556 L22.2988256,35.6555556 Z" id="Fill-9" fill="#D02139"></path>
                <path d="M23.3748488,48.0796296 C36.1484651,48.0796296 46.5038023,37.7092593 46.5038023,24.9148148 C46.5038023,12.1222222 36.1484651,1.75185185 23.3748488,1.75185185 C10.6049302,1.75185185 0.247744186,12.1222222 0.247744186,24.9148148 C0.247744186,37.7092593 10.6049302,48.0796296 23.3748488,48.0796296 Z" id="Stroke-10" stroke="#D02139" stroke-width="0.193"></path>
                <path d="M23.3748488,45.1092593 C34.5103953,45.1092593 43.5382674,36.0703704 43.5382674,24.9166667 C43.5382674,13.762963 34.5103953,4.72037037 23.3748488,4.72037037 C12.243,4.72037037 3.21512791,13.762963 3.21512791,24.9166667 C3.21512791,36.0703704 12.243,45.1092593 23.3748488,45.1092593 Z" id="Stroke-11" stroke="#D02139" stroke-width="0.125"></path>
                <path d="M38.8126395,26.0092593 C39.2970349,26.0092593 39.6889884,25.6148148 39.6889884,25.1296296 C39.6889884,24.6425926 39.2970349,24.2481481 38.8126395,24.2481481 C38.3263953,24.2481481 37.9344419,24.6425926 37.9344419,25.1296296 C37.9344419,25.6148148 38.3263953,26.0092593 38.8126395,26.0092593" id="Fill-12" fill="#D02139"></path>
                <path d="M38.8126395,26.0092593 C39.2970349,26.0092593 39.6889884,25.6148148 39.6889884,25.1296296 C39.6889884,24.6425926 39.2970349,24.2481481 38.8126395,24.2481481 C38.3263953,24.2481481 37.9344419,24.6425926 37.9344419,25.1296296 C37.9344419,25.6148148 38.3263953,26.0092593 38.8126395,26.0092593 Z" id="Stroke-13" stroke="#D02139" stroke-width="0.156"></path>
                <path d="M39.5170465,19.8759259 C39.7536977,19.8925926 39.9848023,19.8925926 40.2122093,19.8759259 C40.045814,19.9777778 39.8350465,20.1259259 39.5817558,20.312963 L38.7479302,20.9314815 L38.4225349,19.7888889 L39.5170465,19.8759259 Z M36.8972442,19.6796296 L38.023186,19.7611111 L38.4243837,21.1740741 L37.5147558,21.8592593 L37.660814,22.3666667 L40.6374419,20.0259259 L40.5024767,19.5444444 L36.7622791,19.2074074 L36.8972442,19.6796296 Z M37.3834884,14.2240741 L37.9825116,15.1611111 C38.1248721,15.3796296 38.182186,15.5685185 38.1581512,15.7259259 C38.1322674,15.8888889 38.0509186,16.012963 37.910407,16.1018519 C37.8161163,16.162963 37.7107326,16.1944444 37.5979535,16.1925926 C37.4814767,16.1925926 37.3723953,16.1537037 37.2725581,16.0759259 C37.1708721,16 37.0617907,15.8722222 36.9490116,15.6925926 L36.411,14.8518519 L37.3834884,14.2240741 Z M34.7618372,15.912963 L36.070814,15.0703704 L36.3629302,15.5240741 C36.4276395,15.6240741 36.468314,15.7 36.4868023,15.75 C36.512686,15.8185185 36.5237791,15.8962963 36.5237791,15.9777778 C36.5237791,16.062963 36.501593,16.1703704 36.4516744,16.3037037 C36.4073023,16.4388889 36.3333488,16.6185185 36.2279651,16.8481481 L35.8637442,17.6333333 L36.1798953,18.1240741 L36.6550465,17.0944444 C36.7456395,16.8907407 36.8066512,16.7 36.8362326,16.5166667 C36.8510233,16.4333333 36.8491744,16.3259259 36.830686,16.1888889 C37.0543953,16.4462963 37.2799535,16.5962963 37.5110581,16.6425926 C37.740314,16.6851852 37.9603256,16.6388889 38.1692442,16.5037037 C38.3319419,16.4 38.4521163,16.262963 38.535314,16.0962963 C38.6166628,15.9259259 38.6406977,15.7574074 38.6037209,15.587037 C38.5704419,15.4148148 38.4687558,15.1962963 38.2986628,14.9351852 L37.4592907,13.6240741 L34.5103953,15.5203704 L34.7618372,15.912963 Z M33.1551977,14.2111111 L33.4103372,13.8833333 L31.7168023,12.5555556 L32.4526395,11.6148148 L33.9797791,12.812963 L34.2330698,12.487037 L32.7077791,11.2888889 L33.3715116,10.4425926 L35.0003372,11.7222222 L35.2554767,11.3981481 L33.2624302,9.83148148 L31.0974419,12.5925926 L33.1551977,14.2111111 Z M29.3817209,11.75 L30.823814,8.55555556 L30.4022791,8.36296296 L28.9620349,11.5611111 L29.3817209,11.75 Z M26.6306512,10.2203704 C26.4272791,10.337037 26.1961744,10.3740741 25.9410349,10.3240741 C25.7302674,10.2888889 25.5453837,10.2 25.3845349,10.0592593 C25.2218372,9.91851852 25.1201512,9.73148148 25.0720814,9.4962963 C25.0277093,9.26111111 25.0295581,8.99814815 25.0813256,8.70555556 C25.122,8.47592593 25.1959535,8.26111111 25.3087326,8.06111111 C25.4159651,7.85925926 25.5749651,7.70925926 25.7746395,7.61481481 C25.974314,7.52037037 26.2072674,7.49444444 26.4735,7.54259259 C26.7046047,7.58518519 26.8857907,7.67592593 27.0170581,7.81666667 C27.1464767,7.95925926 27.2315233,8.16296296 27.2685,8.42777778 L27.734407,8.40185185 C27.6992791,8.06666667 27.5791047,7.79074074 27.3757326,7.57222222 C27.1723605,7.3537037 26.8968837,7.21481481 26.553,7.15185185 C26.2479419,7.09814815 25.9576744,7.12037037 25.6785,7.21111111 C25.4011744,7.30555556 25.1700698,7.47407407 24.9833372,7.71666667 C24.8003023,7.96111111 24.6745814,8.26296296 24.6098721,8.62407407 C24.5525581,8.95185185 24.5581047,9.27222222 24.6283605,9.58148148 C24.6986163,9.89074074 24.8372791,10.1425926 25.0425,10.3351852 C25.2495698,10.5277778 25.5379884,10.6574074 25.9077558,10.7222222 C26.2682791,10.7888889 26.5899767,10.7444444 26.8746977,10.5907407 C27.1575698,10.437037 27.3812791,10.1814815 27.5421279,9.82407407 L27.1076512,9.62777778 C26.9930233,9.90740741 26.8321744,10.1037037 26.6306512,10.2203704 L26.6306512,10.2203704 Z M20.1763605,10.7351852 L19.8269302,8 L22.0011628,10.5018519 L22.4744651,10.4425926 L22.032593,6.96296296 L21.5888721,7.01666667 L21.9383023,9.75185185 L19.7640698,7.25 L19.2926163,7.30740741 L19.7344884,10.7907407 L20.1763605,10.7351852 Z M15.3878721,9.97777778 C15.3582907,9.74259259 15.3139186,9.51481481 15.2510581,9.29444444 C15.3860233,9.43703704 15.5672093,9.61851852 15.8020116,9.82777778 L16.5692791,10.5277778 L15.513593,11.0685185 L15.3878721,9.97777778 Z M15.7077209,12.5888889 L15.5653605,11.4685185 L16.8687907,10.7981481 L17.7192558,11.5574074 L18.1870116,11.3185185 L15.3176163,8.84814815 L14.8701977,9.07407407 L15.2676977,12.812963 L15.7077209,12.5888889 Z M12.4001512,15.412963 L10.4995465,13.4148148 L13.7331628,14.1407407 L14.0788953,13.8111111 L11.6606163,11.2666667 L11.3389186,11.5759259 L13.2376744,13.5703704 L10.005907,12.8481481 L9.66017442,13.1777778 L12.0784535,15.7203704 L12.4001512,15.412963 Z M11.0782326,17.3333333 L8.12933721,15.437037 L7.87789535,15.8277778 L10.8286395,17.7240741 L11.0782326,17.3333333 Z M9.42722093,21.1018519 L7.9204186,20.587037 L8.44733721,19.0277778 L8.05538372,18.8944444 L7.52846512,20.4555556 L6.49866279,20.1074074 L7.11062791,18.3055556 L6.71682558,18.1722222 L5.95880233,20.4148148 L9.27931395,21.5388889 L9.42722093,21.1018519 L9.42722093,21.1018519 Z" id="Fill-14" fill="#D02139"></path>
                <path d="M37.4130698,31.0148148 C37.2355814,30.8555556 37.0506977,30.7148148 36.8602674,30.5907407 C37.0562442,30.6092593 37.3095349,30.6240741 37.6275349,30.6277778 L38.6628837,30.6425926 L38.2265581,31.75 L37.4130698,31.0148148 Z M39.3728372,32.7648148 L38.5279186,32.012963 L39.0659302,30.65 L40.204814,30.6592593 L40.397093,30.1685185 L36.6125233,30.2148148 L36.4313372,30.6777778 L39.1935,33.2203704 L39.3728372,32.7648148 Z M33.9298605,35.1888889 L34.6139302,34.312963 C34.7766279,34.1111111 34.9356279,33.9907407 35.0946279,33.9666667 C35.2517791,33.9333333 35.3959884,33.9722222 35.525407,34.0740741 C35.616,34.1425926 35.6770116,34.2333333 35.7158372,34.3425926 C35.7546628,34.45 35.7546628,34.5666667 35.7121395,34.6888889 C35.673314,34.8092593 35.5882674,34.9537037 35.457,35.1203704 L34.8413372,35.9037037 L33.9298605,35.1888889 Z M36.3795698,37.1166667 L35.1574884,36.1537037 L35.4902791,35.7314815 C35.5623837,35.637037 35.6215465,35.5722222 35.6622209,35.5388889 C35.7213837,35.4925926 35.7879419,35.4555556 35.865593,35.4277778 C35.945093,35.4018519 36.0541744,35.387037 36.1983837,35.387037 C36.3370465,35.387037 36.5311744,35.4018519 36.7826163,35.4240741 L37.6423256,35.5111111 L38.0028488,35.0518519 L36.876907,34.9388889 C36.6550465,34.9203704 36.4535233,34.9240741 36.2723372,34.9537037 C36.1872907,34.9685185 36.0856047,35.0074074 35.9617326,35.0648148 C36.1336744,34.7722222 36.2020814,34.512963 36.1669535,34.2777778 C36.1336744,34.0444444 36.0171977,33.8537037 35.8230698,33.6981481 C35.6714651,33.5796296 35.5032209,33.5111111 35.3164884,33.4851852 C35.1297558,33.462963 34.9652093,33.4962963 34.8154535,33.5851852 C34.6656977,33.6759259 34.491907,33.8425926 34.2996279,34.0888889 L33.3400814,35.3111111 L36.093,37.4814815 L36.3795698,37.1166667 Z M33.7579186,39.3666667 L33.5342093,39.0185185 L31.7241977,40.1796296 L31.0789535,39.1740741 L32.7114767,38.1259259 L32.4896163,37.7814815 L30.857093,38.8277778 L30.2765581,37.9222222 L32.0218605,36.8018519 L31.7981512,36.4537037 L29.6664419,37.8259259 L31.5578023,40.7796296 L33.7579186,39.3666667 Z M25.6766512,39.4277778 L26.7582209,39.1777778 C27.0115116,39.1166667 27.2093372,39.1277778 27.3498488,39.2037037 C27.4922093,39.2796296 27.5791047,39.4018519 27.6179302,39.5648148 C27.643814,39.6740741 27.6364186,39.7814815 27.597593,39.8907407 C27.5587674,40 27.4866628,40.0888889 27.3794302,40.1574074 C27.2740465,40.2259259 27.1150465,40.2851852 26.9098256,40.3351852 L25.939186,40.5592593 L25.6766512,39.4277778 Z M26.3810581,42.4703704 L26.0297791,40.95 L26.5548488,40.8314815 C26.6694767,40.8018519 26.7545233,40.787037 26.8099884,40.787037 C26.882093,40.787037 26.9578953,40.8018519 27.0355465,40.8314815 C27.1150465,40.8592593 27.2056395,40.9166667 27.3184186,41.0074074 C27.4293488,41.0944444 27.575407,41.2277778 27.7528953,41.4018519 L28.370407,42.0092593 L28.938,41.8759259 L28.1282093,41.0833333 C27.9673605,40.9296296 27.8083605,40.8055556 27.6493605,40.7185185 C27.5735581,40.6759259 27.4700233,40.6388889 27.336907,40.6111111 C27.654907,40.487037 27.8712209,40.3240741 27.9895465,40.1222222 C28.1097209,39.9185185 28.1393023,39.6944444 28.0838372,39.4537037 C28.041314,39.2685185 27.9544186,39.1055556 27.8231512,38.9722222 C27.6918837,38.837037 27.5402791,38.7592593 27.3683372,38.7333333 C27.1963953,38.7111111 26.9578953,38.7333333 26.6509884,38.8018519 L25.1386395,39.1518519 L25.9299419,42.5740741 L26.3810581,42.4703704 Z M23.0956744,42.7222222 L23.1271047,42.3092593 L20.9806047,42.1444444 L21.0711977,40.9537037 L23.0050814,41.1018519 L23.0383605,40.6907407 L21.1044767,40.5407407 L21.1858256,39.4703704 L23.2509767,39.6259259 L23.282407,39.2148148 L20.7531977,39.0185185 L20.4869651,42.5240741 L23.0956744,42.7222222 Z M16.6321395,38.0388889 L17.3180581,38.3092593 C17.5731977,38.4111111 17.750686,38.5092593 17.8486744,38.5981481 C17.9836395,38.7222222 18.0723837,38.9 18.1093605,39.1277778 C18.1500349,39.3555556 18.1019651,39.6407407 17.9688488,39.9814815 C17.8727093,40.2259259 17.7599302,40.4259259 17.6360581,40.5777778 C17.5103372,40.7259259 17.3753721,40.8314815 17.2330116,40.8962963 C17.1313256,40.9388889 17.013,40.9574074 16.8743372,40.9462963 C16.7356744,40.9388889 16.5618837,40.8925926 16.3437209,40.8092593 L15.6485581,40.5333333 L16.6321395,38.0388889 Z M16.2420349,41.2148148 C16.4398605,41.2907407 16.6210465,41.3407407 16.7874419,41.362963 C16.9519884,41.3888889 17.1054419,41.3851852 17.2422558,41.3555556 C17.3772209,41.3259259 17.5140349,41.2648148 17.6545465,41.1740741 C17.7950581,41.087037 17.9300233,40.9574074 18.0649884,40.787037 C18.1962558,40.6203704 18.3127326,40.4111111 18.4107209,40.1648148 C18.5235,39.8722222 18.5845116,39.5962963 18.5882093,39.337037 C18.591907,39.0759259 18.5364419,38.8407407 18.421814,38.6277778 C18.3349186,38.4611111 18.2073488,38.3203704 18.0372558,38.2055556 C17.9152326,38.1222222 17.7285,38.0277778 17.4770581,37.9296296 L16.3529651,37.4851852 L15.0661744,40.7481481 L16.2420349,41.2148148 Z M12.9732907,36.137037 C13.1803605,36.0203704 13.3726395,35.8944444 13.5538256,35.7518519 C13.4706279,35.9296296 13.3763372,36.1685185 13.265407,36.4648148 L12.9085814,37.4388889 L12.0118953,36.6611111 L12.9732907,36.137037 Z M10.675186,37.412963 L11.6606163,36.8592593 L12.7699186,37.8185185 L12.3816628,38.8925926 L12.7828605,39.237037 L13.9938488,35.6444444 L13.6148372,35.3148148 L10.3035698,37.087037 L10.675186,37.412963 Z M7.20676744,32.4148148 L9.78959302,30.9240741 L7.70965116,33.2925926 L7.9204186,33.6592593 L10.9691512,33.0759259 L8.427,34.5407407 L8.6507093,34.9314815 L11.6865,33.1777778 L11.3758953,32.6388889 L8.84483721,33.1259259 C8.58969767,33.1777778 8.39556977,33.2166667 8.26430233,33.2462963 C8.3475,33.1592593 8.47137209,33.0222222 8.63222093,32.8407407 L10.3664302,30.8851852 L10.0188488,30.2777778 L6.98305814,32.0277778 L7.20676744,32.4148148 L7.20676744,32.4148148 Z" id="Fill-15" fill="#D02139"></path>
                <path d="M23.3748488,37.4166667 C30.3542093,37.4166667 36.0116512,31.75 36.0116512,24.7611111 C36.0116512,17.7685185 30.3542093,12.1018519 23.3748488,12.1018519 C16.3973372,12.1018519 10.7398953,17.7685185 10.7398953,24.7611111 C10.7398953,31.75 16.3973372,37.4166667 23.3748488,37.4166667 Z" id="Stroke-16" stroke="#D02139" stroke-width="0.082"></path>
                <path d="M140.833326,27.4203704 L144.266616,17.9592593 L147.792349,27.4203704 L140.833326,27.4203704 Z M147.073151,12.0240741 L141.587651,12.0240741 L131.740744,37.4962963 L137.181872,37.4962963 L139.276605,31.7092593 L149.452605,31.7092593 L151.634233,37.4962963 L157.212174,37.4962963 L147.073151,12.0240741 Z M112.418547,35.7351852 C114.136116,37.212963 116.602465,37.9555556 119.813895,37.9555556 C122.019558,37.9555556 123.861,37.6444444 125.341919,37.0259259 C126.81914,36.4037037 127.959872,35.4592593 128.769663,34.1833333 C129.577605,32.9092593 129.9825,31.5462963 129.9825,30.0851852 C129.9825,28.4759259 129.646012,27.1240741 128.971186,26.0314815 C128.300058,24.9351852 127.364547,24.0722222 126.168349,23.4444444 C124.977698,22.812963 123.136256,22.2 120.647721,21.6055556 C118.155488,21.012963 116.589523,20.4444444 115.94243,19.9 C115.437698,19.4722222 115.184407,18.9574074 115.184407,18.3537037 C115.184407,17.6944444 115.454337,17.1666667 115.996047,16.7722222 C116.83357,16.1592593 118.000186,15.8537037 119.484802,15.8537037 C120.925047,15.8537037 122.004767,16.1388889 122.723965,16.712963 C123.44686,17.2814815 123.912767,18.2222222 124.132779,19.5296296 L129.255907,19.337037 C129.172709,16.9925926 128.327791,15.1148148 126.724849,13.7092593 C125.114512,12.3037037 122.720267,11.6 119.538419,11.6 C117.589744,11.6 115.92764,11.8962963 114.552105,12.487037 C113.172872,13.0777778 112.119035,13.9425926 111.388744,15.0703704 C110.656605,16.2018519 110.286837,17.4166667 110.286837,18.7148148 C110.286837,20.7314815 111.067047,22.4444444 112.623767,23.8444444 C113.729372,24.8407407 115.654012,25.6833333 118.393988,26.3722222 C120.525698,26.9037037 121.89014,27.2777778 122.489163,27.487037 C123.36736,27.8 123.981174,28.1685185 124.330605,28.587037 C124.681884,29.0111111 124.857523,29.5203704 124.857523,30.1222222 C124.857523,31.0574074 124.439686,31.8740741 123.604012,32.5777778 C122.766488,33.2759259 121.52407,33.6259259 119.878605,33.6259259 C118.321884,33.6259259 117.083163,33.2351852 116.16614,32.45 C115.249116,31.662963 114.642698,30.4351852 114.343186,28.7611111 L109.334686,29.2611111 C109.667477,32.0925926 110.69543,34.2518519 112.418547,35.7351852 L112.418547,35.7351852 Z M89.7850814,37.4962963 L89.7850814,20.7111111 L100.10714,37.4962963 L105.232116,37.4962963 L105.232116,12.0240741 L100.491698,12.0240741 L100.491698,29.137037 L90.0124884,12.0240741 L85.042814,12.0240741 L85.042814,37.4962963 L89.7850814,37.4962963 Z M74.9925349,37.4962963 L80.1156628,37.4962963 L80.1156628,12.0240741 L74.9925349,12.0240741 L74.9925349,37.4962963 Z M58.6284767,37.4962963 L58.6284767,26.6555556 L69.2629884,26.6555556 L69.2629884,22.362963 L58.6284767,22.362963 L58.6284767,16.312963 L70.9435814,16.312963 L70.9435814,12.0240741 L53.5053488,12.0240741 L53.5053488,37.4962963 L58.6284767,37.4962963 L58.6284767,37.4962963 Z" id="Fill-17" fill="#D02139"></path>
                <path d="M7.32139535,26.0962963 C7.8057907,26.0962963 8.20144186,25.7018519 8.20144186,25.2185185 C8.20144186,24.7296296 7.8057907,24.3351852 7.32139535,24.3351852 C6.83884884,24.3351852 6.44319767,24.7296296 6.44319767,25.2185185 C6.44319767,25.7018519 6.83884884,26.0962963 7.32139535,26.0962963" id="Fill-18" fill="#D02139"></path>
                <path d="M7.32139535,26.0962963 C7.8057907,26.0962963 8.20144186,25.7018519 8.20144186,25.2185185 C8.20144186,24.7296296 7.8057907,24.3351852 7.32139535,24.3351852 C6.83884884,24.3351852 6.44319767,24.7296296 6.44319767,25.2185185 C6.44319767,25.7018519 6.83884884,26.0962963 7.32139535,26.0962963 Z" id="Stroke-19" stroke="#D02139" stroke-width="0.156"></path>
                <path d="M77.115,44.5481481 C77.115,44.9537037 76.7951512,45.0833333 76.6416977,45.0833333 C76.547407,45.0833333 76.4642093,45.0148148 76.4031977,44.9444444 C75.990907,44.4666667 75.7967791,44.3537037 75.5897093,44.3537037 C75.4455,44.3537037 75.3234767,44.487037 75.3234767,44.6222222 C75.3234767,44.737037 75.3844884,44.8814815 75.5897093,45.0833333 L75.9816628,45.4888889 C76.3403372,45.8611111 76.5067326,46.1796296 76.5067326,46.5407407 C76.5067326,46.9648148 76.2793256,47.3666667 75.8873721,47.6851852 C75.5379419,47.9851852 75.0960698,48.1407407 74.6005814,48.1407407 C74.1272791,48.1407407 73.5800233,47.8518519 73.5800233,47.3444444 C73.5800233,47.0148148 73.8185233,46.7481481 74.0866047,46.7481481 C74.1975349,46.7481481 74.2825814,46.8481481 74.4064535,46.9722222 C74.8076512,47.4 75.0128721,47.5111111 75.218093,47.5111111 C75.4048256,47.5111111 75.5712209,47.3666667 75.5712209,47.2111111 C75.5712209,47.0666667 75.4769302,46.9037037 75.2698605,46.687037 L74.9315233,46.3240741 C74.6098256,45.9962963 74.4249419,45.6518519 74.4249419,45.2833333 C74.4249419,44.8388889 74.6948721,44.4259259 75.0036279,44.1574074 C75.3012907,43.912963 75.6821512,43.7240741 76.1055349,43.7240741 C76.660186,43.7240741 77.115,44.0851852 77.115,44.5481481" id="Fill-20" fill="#D02139"></path>
                <path d="M81.2878256,45.2333333 C81.2878256,45.9740741 80.9254535,46.8388889 80.3301279,47.4166667 C79.7939651,47.9333333 79.1764535,48.1407407 78.5792791,48.1407407 C77.5272907,48.1407407 77.0743256,47.4277778 77.0854186,46.7074074 C77.0946628,45.912963 77.4755233,44.9722222 78.1651395,44.3740741 C78.762314,43.8592593 79.3095698,43.7240741 79.7736279,43.7240741 C80.8755349,43.7240741 81.2878256,44.487037 81.2878256,45.2333333 Z M79.2892326,44.5703704 C78.9083721,45.0333333 78.2686744,46.2740741 78.2686744,47.2611111 C78.2686744,47.5222222 78.3925465,47.6851852 78.5885233,47.6851852 C78.8455116,47.6851852 79.0729186,47.4462963 79.3502442,46.9944444 C79.6294186,46.5314815 80.1323023,45.3944444 80.1323023,44.6111111 C80.1323023,44.3925926 80.0712907,44.1759259 79.8457326,44.1759259 C79.6793372,44.1759259 79.4963023,44.3037037 79.2892326,44.5703704 L79.2892326,44.5703704 Z" id="Fill-21" fill="#D02139"></path>
                <path d="M81.4856512,47.6944444 C81.4856512,47.5407407 81.5300233,47.3666667 81.6317093,47.0777778 L83.3918023,41.9703704 C83.5156744,41.5962963 83.5045814,41.4962963 83.3215465,41.3851852 L83.0312791,41.2185185 C83.0035465,41.1351852 83.0035465,41.0407407 83.0830465,40.9685185 C83.4139884,40.8333333 84.4622791,40.6388889 84.9781047,40.6203704 C85.0502093,40.6277778 85.0797907,40.6611111 85.0797907,40.7222222 C84.928186,41.1555556 84.7839767,41.5277778 84.5953953,42.0740741 L82.9092558,46.9722222 C82.8038721,47.2611111 82.7742907,47.4462963 82.9166512,47.4462963 C83.1440581,47.4462963 83.7393837,46.8203704 83.9889767,46.5314815 C84.1036047,46.5203704 84.2052907,46.6222222 84.1831047,46.7592593 C83.8872907,47.337037 83.3215465,48.1407407 82.1475349,48.1407407 C81.6317093,48.1407407 81.4856512,47.9018519 81.4856512,47.6944444" id="Fill-22" fill="#D02139"></path>
                <path d="M86.8639186,44.1574074 C86.8639186,44.2407407 86.8454302,44.3740741 86.8121512,44.4481481 L85.7934419,46.9537037 C85.7213372,47.1388889 85.7509186,47.2333333 85.8766395,47.2333333 C85.9376512,47.2333333 86.0615233,47.1888889 86.2667442,47.0148148 C87.1227558,46.2814815 87.8641395,44.7777778 88.3263488,43.8074074 C88.4409767,43.7574074 88.5537558,43.7240741 88.7090581,43.7240741 C89.0473953,43.7240741 89.2858953,43.837037 89.426407,43.9518519 C89.0363023,44.9611111 88.6147674,45.9851852 88.256093,46.9944444 C88.2135698,47.1203704 88.1747442,47.2833333 88.3041628,47.2833333 C88.4705581,47.2833333 88.9863837,46.8814815 89.2433721,46.6148148 C89.3653953,46.6314815 89.426407,46.7074074 89.426407,46.8481481 C89.141686,47.3555556 88.1303721,48.1407407 87.2632674,48.1407407 C87.0081279,48.1407407 86.7899651,47.9240741 86.9175349,47.612963 L87.4906744,46.1481481 L87.4740349,46.1481481 C86.9286279,46.9222222 85.7934419,48.1407407 84.9707093,48.1407407 C84.6212791,48.1407407 84.4049651,47.8907407 84.4049651,47.6018519 C84.4049651,47.4166667 84.4733721,47.2111111 84.5584186,46.9944444 L85.4107326,44.8388889 C85.4661977,44.7055556 85.4551047,44.5703704 85.371907,44.5703704 C85.166686,44.5703704 84.7433023,44.9722222 84.4548837,45.2 C84.3421047,45.1611111 84.27,45.0962963 84.2773953,44.9537037 C84.6711977,44.4259259 85.6178023,43.7240741 86.4017093,43.7240741 C86.6457558,43.7240741 86.8639186,43.962963 86.8639186,44.1574074" id="Fill-23" fill="#D02139"></path>
                <path d="M89.494814,46.9444444 C89.494814,46.2925926 89.846093,45.3555556 90.4229302,44.7055556 C91.0404419,44.012963 91.7097209,43.7240741 92.2754651,43.7240741 C92.8707907,43.7240741 93.3274535,44.0018519 93.3274535,44.5203704 C93.3274535,44.9111111 92.9983605,45.1703704 92.6267442,45.1703704 C92.3697558,45.1703704 92.2255465,45.0148148 92.2144535,44.787037 C92.2033605,44.5925926 92.2033605,44.1759259 92.0092326,44.1759259 C91.8428372,44.1759259 91.6154302,44.3740741 91.3695349,44.8277778 C91.1014535,45.3333333 90.8648023,45.9962963 90.8648023,46.7074074 C90.8648023,47.2 91.0515349,47.3888889 91.2974302,47.3888889 C91.5433256,47.3888889 91.9038488,47.2222222 92.3697558,46.7259259 C92.5028721,46.7259259 92.6045581,46.8314815 92.5823721,46.9537037 C92.2440349,47.4888889 91.4305465,48.1407407 90.5357093,48.1407407 C89.8534884,48.1407407 89.494814,47.662963 89.494814,46.9444444" id="Fill-24" fill="#D02139"></path>
                <path d="M94.6992907,47.1611111 C94.6549186,47.25 94.6660116,47.3166667 94.7381163,47.3166667 C94.8823256,47.3166667 95.4499186,46.9111111 95.706907,46.6648148 C95.8326279,46.6648148 95.934314,46.7777778 95.9047326,46.9111111 C95.4998372,47.4462963 94.582814,48.1407407 93.741593,48.1407407 C93.4716628,48.1407407 93.264593,47.8518519 93.264593,47.7277778 C93.264593,47.612963 93.3089651,47.4888889 93.3921628,47.2833333 L94.4607907,44.7148148 C94.4996163,44.6314815 94.4922209,44.5703704 94.4423023,44.5703704 C94.264814,44.5703704 93.6879767,45.0037037 93.5252791,45.1611111 C93.3995581,45.1388889 93.3200581,45.0037037 93.3588837,44.9111111 C93.9153837,44.2314815 94.8823256,43.7240741 95.4277326,43.7240741 C95.6551395,43.7240741 95.9047326,43.9518519 95.9047326,44.1759259 C95.9047326,44.2814815 95.8400233,44.4759259 95.7716163,44.6314815 L94.6992907,47.1611111 Z M95.8825465,41.1351852 C96.2449186,41.1351852 96.4889651,41.3740741 96.4889651,41.7759259 C96.4889651,42.2481481 96.1617209,42.6537037 95.6662326,42.6537037 C95.2650349,42.6537037 95.0265349,42.3833333 95.0265349,42.0314815 C95.0265349,41.5574074 95.388907,41.1351852 95.8825465,41.1351852 L95.8825465,41.1351852 Z" id="Fill-25" fill="#D02139"></path>
                <path d="M100.386314,45.2333333 C100.386314,45.9740741 100.025791,46.8388889 99.4249186,47.4166667 C98.8906047,47.9333333 98.273093,48.1407407 97.6777674,48.1407407 C96.6276279,48.1407407 96.172814,47.4277778 96.183907,46.7074074 C96.1931512,45.912963 96.5721628,44.9722222 97.2636279,44.3740741 C97.8626512,43.8592593 98.4080581,43.7240741 98.8739651,43.7240741 C99.9740233,43.7240741 100.386314,44.487037 100.386314,45.2333333 Z M98.3895698,44.5703704 C98.0068605,45.0333333 97.3671628,46.2740741 97.3671628,47.2611111 C97.3671628,47.5222222 97.4910349,47.6851852 97.6888605,47.6851852 C97.9458488,47.6851852 98.1732558,47.4462963 98.4505814,46.9944444 C98.727907,46.5314815 99.2307907,45.3944444 99.2307907,44.6111111 C99.2307907,44.3925926 99.1697791,44.1759259 98.9460698,44.1759259 C98.7796744,44.1759259 98.5947907,44.3037037 98.3895698,44.5703704 L98.3895698,44.5703704 Z" id="Fill-26" fill="#D02139"></path>
                <path d="M103.026453,44.3740741 L102.542058,45.6444444 L102.582733,45.6444444 C103.181756,44.8055556 103.982302,43.7240741 104.993616,43.7240741 C105.455826,43.7240741 105.640709,44.0537037 105.640709,44.3240741 C105.640709,44.5703704 105.561209,44.9222222 105.43364,45.2388889 C105.239512,45.7574074 104.982523,46.3537037 104.671919,47.087037 C104.610907,47.2333333 104.633093,47.3166667 104.716291,47.3166667 C104.871593,47.3166667 105.361535,46.9111111 105.629616,46.6148148 C105.744244,46.5925926 105.84593,46.6759259 105.834837,46.8092593 C105.550116,47.3259259 104.694105,48.1407407 103.675395,48.1407407 C103.436895,48.1407407 103.231674,47.9240741 103.231674,47.7388889 C103.231674,47.5833333 103.303779,47.3777778 103.386977,47.1814815 C103.693884,46.4574074 104.004488,45.7462963 104.261477,45.0222222 C104.353919,44.7777778 104.394593,44.6425926 104.394593,44.5407407 C104.394593,44.4555556 104.353919,44.3925926 104.261477,44.3925926 C104.115419,44.3925926 103.838093,44.5925926 103.47757,45.0555556 C102.902581,45.7962963 102.344233,46.9648148 101.882023,47.9555556 C101.80807,48.0962963 101.613942,48.1407407 101.386535,48.1407407 C101.129547,48.1407407 100.719105,48.0574074 100.830035,47.7277778 C100.874407,47.5833333 101.667558,45.3777778 101.819163,44.9314815 C101.891267,44.7259259 101.90236,44.5592593 101.780337,44.5592593 C101.564023,44.5592593 101.14064,44.8888889 100.90214,45.1166667 C100.800453,45.1166667 100.730198,45.0333333 100.719105,44.9537037 C100.985337,44.4148148 101.852442,43.7240741 102.686267,43.7240741 C103.15957,43.7240741 103.118895,44.137037 103.026453,44.3740741" id="Fill-27" fill="#D02139"></path>
                <path d="M110.035395,44.5481481 C110.035395,45.6111111 108.273453,46.1074074 107.437779,46.3240741 C107.395256,46.4481481 107.384163,46.6037037 107.384163,46.8203704 C107.384163,47.0981481 107.520977,47.3888889 107.827884,47.3888889 C108.197651,47.3888889 108.694988,47.1388889 109.168291,46.6648148 C109.28107,46.6648148 109.384605,46.7703704 109.373512,46.9037037 C108.879872,47.6740741 108.055291,48.1407407 107.127174,48.1407407 C106.38764,48.1407407 106.027116,47.612963 106.027116,46.9537037 C106.027116,46.0240741 106.603953,44.9444444 107.417442,44.3240741 C107.994279,43.8796296 108.550779,43.7240741 109.035174,43.7240741 C109.6305,43.7240741 110.035395,44.0962963 110.035395,44.5481481 Z M108.229081,44.4481481 C107.861163,44.8481481 107.61157,45.4888889 107.520977,45.8685185 C107.879651,45.7685185 108.197651,45.5907407 108.50086,45.2833333 C108.706081,45.0666667 108.857686,44.6722222 108.868779,44.4148148 C108.868779,44.3037037 108.796674,44.1759259 108.672802,44.1759259 C108.539686,44.1759259 108.384384,44.2703704 108.229081,44.4481481 L108.229081,44.4481481 Z" id="Fill-28" fill="#D02139"></path>
                <path d="M113.126651,44.5481481 C113.126651,44.9537037 112.804953,45.0833333 112.653349,45.0833333 C112.559058,45.0833333 112.47586,45.0148148 112.414849,44.9444444 C112.002558,44.4666667 111.80843,44.3537037 111.60136,44.3537037 C111.457151,44.3537037 111.335128,44.487037 111.335128,44.6222222 C111.335128,44.737037 111.39614,44.8814815 111.60136,45.0833333 L111.991465,45.4888889 C112.353837,45.8611111 112.518384,46.1796296 112.518384,46.5407407 C112.518384,46.9648148 112.290977,47.3666667 111.900872,47.6851852 C111.547744,47.9851852 111.107721,48.1407407 110.612233,48.1407407 C110.13893,48.1407407 109.593523,47.8518519 109.593523,47.3444444 C109.593523,47.0148148 109.828326,46.7481481 110.096407,46.7481481 C110.211035,46.7481481 110.290535,46.8481481 110.418105,46.9722222 C110.819302,47.4 111.024523,47.5111111 111.229744,47.5111111 C111.414628,47.5111111 111.581023,47.3666667 111.581023,47.2111111 C111.581023,47.0666667 111.486733,46.9037037 111.28336,46.687037 L110.941326,46.3240741 C110.623326,45.9962963 110.438442,45.6518519 110.438442,45.2833333 C110.438442,44.8388889 110.706523,44.4259259 111.01343,44.1574074 C111.312942,43.912963 111.695651,43.7240741 112.115337,43.7240741 C112.669988,43.7240741 113.126651,44.0851852 113.126651,44.5481481" id="Fill-29" fill="#D02139"></path>
                <path d="M119.442279,44.5481481 C119.442279,45.6111111 117.684035,46.1074074 116.84836,46.3240741 C116.805837,46.4481481 116.794744,46.6037037 116.794744,46.8203704 C116.794744,47.0981481 116.92786,47.3888889 117.238465,47.3888889 C117.610081,47.3888889 118.101872,47.1388889 118.578872,46.6648148 C118.689802,46.6648148 118.795186,46.7703704 118.784093,46.9037037 C118.290453,47.6740741 117.465872,48.1407407 116.537756,48.1407407 C115.798221,48.1407407 115.437698,47.612963 115.437698,46.9537037 C115.437698,46.0240741 116.014535,44.9444444 116.828023,44.3240741 C117.401163,43.8796296 117.96136,43.7240741 118.445756,43.7240741 C119.041081,43.7240741 119.442279,44.0962963 119.442279,44.5481481 Z M117.639663,44.4481481 C117.271744,44.8481481 117.022151,45.4888889 116.92786,45.8685185 C117.288384,45.7685185 117.610081,45.5907407 117.905895,45.2833333 C118.112965,45.0666667 118.268267,44.6722222 118.27936,44.4148148 C118.27936,44.3037037 118.207256,44.1759259 118.083384,44.1759259 C117.950267,44.1759259 117.794965,44.2703704 117.639663,44.4481481 L117.639663,44.4481481 Z" id="Fill-30" fill="#D02139"></path>
                <path d="M121.681221,44.3740741 L121.196826,45.6444444 L121.235651,45.6444444 C121.836523,44.8055556 122.63707,43.7240741 123.648384,43.7240741 C124.110593,43.7240741 124.295477,44.0537037 124.295477,44.3240741 C124.295477,44.5703704 124.212279,44.9222222 124.088407,45.2388889 C123.894279,45.7574074 123.637291,46.3537037 123.326686,47.087037 C123.265674,47.2333333 123.28786,47.3166667 123.36736,47.3166667 C123.522663,47.3166667 124.016302,46.9111111 124.288081,46.6148148 C124.399012,46.5925926 124.500698,46.6759259 124.493302,46.8092593 C124.204884,47.3259259 123.348872,48.1407407 122.330163,48.1407407 C122.091663,48.1407407 121.886442,47.9240741 121.886442,47.7388889 C121.886442,47.5833333 121.958547,47.3777778 122.041744,47.1814815 C122.348651,46.4574074 122.659256,45.7462963 122.916244,45.0222222 C123.008686,44.7777778 123.04936,44.6425926 123.04936,44.5407407 C123.04936,44.4555556 123.008686,44.3925926 122.916244,44.3925926 C122.770186,44.3925926 122.49286,44.5925926 122.132337,45.0555556 C121.557349,45.7962963 121.000849,46.9648148 120.534942,47.9555556 C120.466535,48.0962963 120.268709,48.1407407 120.041302,48.1407407 C119.784314,48.1407407 119.373872,48.0574074 119.484802,47.7277778 C119.527326,47.5833333 120.318628,45.3777778 120.47393,44.9314815 C120.546035,44.7259259 120.557128,44.5592593 120.435105,44.5592593 C120.218791,44.5592593 119.795407,44.8888889 119.556907,45.1166667 C119.455221,45.1166667 119.383116,45.0333333 119.373872,44.9537037 C119.640105,44.4148148 120.507209,43.7240741 121.341035,43.7240741 C121.814337,43.7240741 121.773663,44.137037 121.681221,44.3740741" id="Fill-31" fill="#D02139"></path>
                <path d="M129.462977,44.3740741 L128.998919,45.5907407 L129.021105,45.5907407 C129.573907,44.787037 130.452105,43.7240741 131.313663,43.7240741 C131.770326,43.7240741 131.881256,44.0537037 131.881256,44.3240741 C131.881256,44.5314815 131.696372,44.9722222 131.441233,45.5907407 L131.468965,45.5907407 C132.169674,44.487037 133.025686,43.7240741 133.76707,43.7240741 C134.238523,43.7240741 134.445593,44.0851852 134.445593,44.3537037 C134.445593,44.6037037 134.366093,44.9222222 134.238523,45.2388889 C134.044395,45.7574074 133.787407,46.3537037 133.4805,47.087037 C133.415791,47.2333333 133.437977,47.3166667 133.521174,47.3166667 C133.706058,47.3166667 134.149779,46.9111111 134.4345,46.6148148 C134.550977,46.5925926 134.650814,46.6759259 134.643419,46.8092593 C134.355,47.3259259 133.498988,48.1407407 132.471035,48.1407407 C132.232535,48.1407407 132.025465,47.9240741 132.025465,47.7388889 C132.025465,47.5833333 132.09757,47.3777778 132.180767,47.1814815 C132.487674,46.4574074 132.798279,45.7462963 133.055267,45.0222222 C133.149558,44.7777778 133.188384,44.6425926 133.188384,44.5407407 C133.188384,44.4555556 133.149558,44.3925926 133.047872,44.3925926 C132.931395,44.3925926 132.65407,44.5925926 132.293547,45.0555556 C131.707465,45.7907407 131.169453,46.9648148 130.72943,47.912963 C130.646233,48.0962963 130.524209,48.1407407 130.307895,48.1407407 C129.851233,48.1407407 129.523988,48.0277778 129.596093,47.8111111 C129.634919,47.6851852 130.245035,46.1074074 130.668419,45.0222222 C130.770105,44.7777778 130.812628,44.6425926 130.812628,44.5407407 C130.812628,44.4555556 130.751616,44.3925926 130.668419,44.3925926 C130.535302,44.3925926 130.224698,44.5925926 129.8235,45.0962963 C129.278093,45.7907407 128.751174,46.9648148 128.327791,47.9555556 C128.266779,48.0962963 128.165093,48.1407407 127.926593,48.1407407 C127.48657,48.1407407 127.153779,48.0277778 127.227733,47.8111111 C127.270256,47.6740741 128.092988,45.3777778 128.244593,44.9314815 C128.372163,44.5814815 128.327791,44.5092593 128.176186,44.5092593 C127.823058,44.5092593 127.527244,44.8888889 127.338663,45.0962963 C127.227733,45.1055556 127.122349,45.0148148 127.114953,44.9 C127.410767,44.2314815 128.072651,43.7240741 129.061779,43.7240741 C129.562814,43.7240741 129.562814,44.0962963 129.462977,44.3740741" id="Fill-32" fill="#D02139"></path>
                <path d="M138.446477,44.1074074 L138.684977,43.6240741 C138.745988,43.5796296 138.851372,43.5462963 138.962302,43.5462963 C139.089872,43.5462963 139.222988,43.5685185 139.345012,43.6111111 C139.518802,43.662963 139.674105,43.7759259 139.724023,43.8796296 C139.333919,44.8481481 138.879105,45.9962963 138.489,47.1388889 C138.446477,47.2722222 138.439081,47.3555556 138.511186,47.3555556 C138.655395,47.3555556 139.158279,47.0444444 139.479977,46.7148148 C139.579814,46.7148148 139.685198,46.7981481 139.674105,46.9444444 C139.222988,47.5833333 138.333698,48.1518519 137.616349,48.1518519 C137.34457,48.1518519 137.211453,47.912963 137.211453,47.75 C137.211453,47.6351852 137.26507,47.4777778 137.326081,47.3166667 L137.632988,46.5203704 L137.594163,46.5203704 C136.987744,47.3259259 135.998616,48.1407407 135.244291,48.1407407 C134.926291,48.1407407 134.615686,47.8407407 134.615686,47.5 C134.615686,46.8925926 135.225802,45.6018519 136.165012,44.7592593 C136.843535,44.1481481 137.449953,43.8685185 137.99536,43.8685185 C138.098895,43.8685185 138.305965,43.962963 138.446477,44.1074074 Z M137.771651,44.3240741 C137.616349,44.3240741 137.427767,44.4148148 137.082035,44.8611111 C136.56436,45.5111111 136.089209,46.5314815 136.059628,47.1092593 L136.059628,47.2 C136.070721,47.3055556 136.12064,47.3666667 136.203837,47.3666667 C136.431244,47.3666667 136.99514,46.7592593 137.305744,46.3425926 C137.67736,45.85 138.078558,45.0555556 138.200581,44.7148148 C138.078558,44.4148148 137.934349,44.3240741 137.771651,44.3240741 L137.771651,44.3240741 Z" id="Fill-33" fill="#D02139"></path>
                <path d="M143.558512,43.9814815 L144.231488,41.9703704 C144.353512,41.5962963 144.342419,41.4962963 144.159384,41.3851852 L143.869116,41.2185185 C143.837686,41.1351852 143.837686,41.0407407 143.920884,40.9685185 C144.238884,40.8333333 145.300116,40.6388889 145.784512,40.6203704 C145.860314,40.6277778 145.888047,40.6611111 145.888047,40.7222222 C145.721651,41.1555556 145.599628,41.5185185 145.414744,42.0648148 L143.920884,46.5537037 C143.804407,46.8814815 143.758186,47.1203704 143.747093,47.2111111 C143.747093,47.2722222 143.776674,47.337037 143.837686,47.337037 C143.952314,47.337037 144.455198,47.0277778 144.776895,46.687037 C144.898919,46.6962963 144.95993,46.7703704 144.939593,46.9222222 C144.715884,47.2611111 143.869116,48.1407407 142.852256,48.1407407 C142.561988,48.1407407 142.458453,47.9240741 142.458453,47.7074074 C142.458453,47.5407407 142.561988,47.2611111 142.663674,46.9648148 L142.902174,46.2814815 L142.879988,46.2814815 C142.397442,47.0148148 141.595047,48.1407407 140.461709,48.1407407 C140.006895,48.1407407 139.699988,47.7388889 139.716628,47.1611111 C139.738814,46.3240741 140.223209,45.2833333 141.027453,44.5814815 C141.705977,43.9814815 142.406686,43.7240741 143.00386,43.7240741 C143.262698,43.7240741 143.458674,43.837037 143.558512,43.9814815 Z M140.894337,47.3259259 C140.894337,47.4777778 140.944256,47.5518519 141.045942,47.5518519 C141.22343,47.5518519 141.942628,47.0055556 142.417779,46.3981481 C142.769058,45.9425926 143.057477,45.5111111 143.262698,44.8814815 C143.393965,44.487037 143.314465,44.1759259 143.136977,44.1759259 C143.075965,44.1759259 142.981674,44.1907407 142.757965,44.3537037 C142.561988,44.4981481 142.190372,44.8388889 141.768837,45.45 C141.262256,46.1685185 140.894337,47.0555556 140.894337,47.3259259 L140.894337,47.3259259 Z" id="Fill-34" fill="#D02139"></path>
                <path d="M148.983,44.5481481 C148.983,45.6111111 147.221058,46.1074074 146.387233,46.3240741 C146.346558,46.4481481 146.337314,46.6037037 146.337314,46.8203704 C146.337314,47.0981481 146.47043,47.3888889 146.777337,47.3888889 C147.148953,47.3888889 147.642593,47.1388889 148.115895,46.6648148 C148.232372,46.6648148 148.334058,46.7703704 148.322965,46.9037037 C147.827477,47.6740741 147.004744,48.1407407 146.076628,48.1407407 C145.335244,48.1407407 144.974721,47.612963 144.974721,46.9537037 C144.974721,46.0240741 145.553407,44.9444444 146.365047,44.3240741 C146.943733,43.8796296 147.498384,43.7240741 147.982779,43.7240741 C148.578105,43.7240741 148.983,44.0962963 148.983,44.5481481 Z M147.176686,44.4481481 C146.808767,44.8481481 146.564721,45.4888889 146.47043,45.8685185 C146.827256,45.7685185 147.148953,45.5907407 147.448465,45.2833333 C147.653686,45.0666667 147.805291,44.6722222 147.820081,44.4148148 C147.820081,44.3037037 147.744279,44.1759259 147.622256,44.1759259 C147.48914,44.1759259 147.333837,44.2703704 147.176686,44.4481481 L147.176686,44.4481481 Z" id="Fill-35" fill="#D02139"></path>
                <path d="M153.041198,44.3425926 C153.041198,44.9314815 152.641849,45.3555556 152.362674,45.3555556 C152.157453,45.3555556 152.113081,45.15 152.063163,44.8814815 C152.03543,44.7055556 151.979965,44.6425926 151.900465,44.6425926 C151.724826,44.6425926 151.456744,45.0666667 151.190512,45.5407407 C150.724605,46.3759259 150.434337,47.15 150.107093,47.9555556 C150.044233,48.0962963 149.839012,48.1407407 149.611605,48.1407407 C149.354616,48.1407407 148.944174,48.0574074 149.047709,47.7277778 C149.343523,46.7777778 149.728081,45.6944444 150.012802,44.8055556 C150.077512,44.6111111 150.088605,44.4759259 149.972128,44.4759259 C149.798337,44.4759259 149.406384,44.7777778 149.116116,45.1055556 C148.994093,45.0962963 148.910895,44.9833333 148.933081,44.8666667 C149.138302,44.4555556 149.798337,43.7240741 150.550814,43.7240741 C151.14614,43.7240741 151.179419,44.1907407 150.994535,44.7148148 L150.622919,45.8074074 L150.672837,45.8074074 C151.013023,45.2 151.279256,44.7592593 151.528849,44.437037 C151.846849,44.0018519 152.164849,43.7240741 152.536465,43.7240741 C152.835977,43.7240741 153.041198,43.9185185 153.041198,44.3425926" id="Fill-36" fill="#D02139"></path>
                <path d="M156.195314,44.1074074 L156.431965,43.6240741 C156.494826,43.5796296 156.594663,43.5462963 156.71114,43.5462963 C156.833163,43.5462963 156.966279,43.5685185 157.093849,43.6111111 C157.26764,43.662963 157.422942,43.7759259 157.47286,43.8796296 C157.082756,44.8481481 156.627942,45.9962963 156.237837,47.1388889 C156.195314,47.2722222 156.184221,47.3555556 156.260023,47.3555556 C156.400535,47.3555556 156.905267,47.0444444 157.223267,46.7148148 C157.328651,46.7148148 157.432186,46.7981481 157.422942,46.9444444 C156.966279,47.5833333 156.082535,48.1518519 155.35964,48.1518519 C155.093407,48.1518519 154.960291,47.912963 154.960291,47.75 C154.960291,47.6351852 155.013907,47.4777778 155.074919,47.3166667 L155.381826,46.5203704 L155.343,46.5203704 C154.734733,47.3259259 153.745605,48.1407407 152.991279,48.1407407 C152.673279,48.1407407 152.362674,47.8407407 152.362674,47.5 C152.362674,46.8925926 152.972791,45.6018519 153.912,44.7592593 C154.586826,44.1481481 155.198791,43.8685185 155.742349,43.8685185 C155.847733,43.8685185 156.052953,43.962963 156.195314,44.1074074 Z M155.514942,44.3240741 C155.35964,44.3240741 155.176605,44.4148148 154.825326,44.8611111 C154.313198,45.5111111 153.836198,46.5314815 153.806616,47.1092593 L153.806616,47.2 C153.817709,47.3055556 153.869477,47.3666667 153.952674,47.3666667 C154.176384,47.3666667 154.742128,46.7592593 155.052733,46.3425926 C155.426198,45.85 155.825547,45.0555556 155.949419,44.7148148 C155.825547,44.4148148 155.681337,44.3240741 155.514942,44.3240741 L155.514942,44.3240741 Z" id="Fill-37" fill="#D02139"></path>
            </g>
        </g>
    </g>
</svg>