<?xml version="1.0" encoding="UTF-8"?>
<svg width="171px" height="48px" viewBox="0 0 171 48" version="1.1" xmlns="http://www.w3.org/2000/svg" xmlns:xlink="http://www.w3.org/1999/xlink">
    <!-- Generator: Sketch 58 (84663) - https://sketch.com -->
    <title>telefonica</title>
    <desc>Created with Sketch.</desc>
    <g id="Logos" stroke="none" stroke-width="1" fill="none" fill-rule="evenodd">
        <g id="Telefonica" transform="translate(0.000000, -1.000000)" fill="#003C58">
            <g id="telefonica">
                <path d="M51.024,20.452 C53.512,14.704 55.534,10.284 57.486,6.148 C57.698,5.7 58.072,5.226 58.696,5.072 L62.762,4.312 C61.056,8.812 57.182,16.44 54.562,23.092 C53.174,26.62 52.236,29.3 52.064,31.666 C52.008,32.45 52.064,33.136 52.28,33.798 L51.788,34.03 C49.394,33.28 48.174,31.562 48.174,29.12 C48.174,28.4 48.328,27.562 48.576,26.664 C46.65,28.776 42.942,31.712 39.144,31.82 C35.592,31.922 34.294,29.744 34.322,26.994 C34.364,23.118 36.56,18.734 39.392,15.648 C41.538,13.35 44.872,11.47 47.632,11.496 C49.546,11.516 50.504,12.312 50.472,13.85 C50.442,15.474 49.442,17.04 47.986,18.602 C45.36,21.326 42.442,22.948 39.538,24.394 C39.366,25.036 39.158,26.304 39.154,27.19 C39.15,28.688 39.72,29.426 41,29.41 C44.066,29.374 47.592,26.03 50.176,22.368 C50.46,21.71 50.748,21.064 51.024,20.452 Z M39.926,22.812 C44.022,20.376 47.22,17.06 47.2340122,14.466 C47.236,13.908 46.992,13.48 46.372,13.4759724 C43.83,13.462 40.956,18.778 39.926,22.812 L39.926,22.812 Z" id="Fill-1"></path>
                <path d="M116.596,24.26 C117.796,21.306 119.726,17.302 121.344,13.88 C121.606,13.326 122.04,12.956 122.63,12.806 C123.168,12.668 126.966,12.028 126.966,12.028 C124.47,17.21 122.432,21.558 121.036,25.05 C120.468,26.554 120.158,27.712 120.166,28.266 C120.174,28.926 120.592,29.26 121.208,29.208 C122.294,29.192 123.912,28.062 125.366,26.344 C125.704,23.402 127.32,19.206 130.488,15.756 C133.032,12.984 136.214,11.736 138.724,11.716 C140.622,11.7 142.748,12.032 142.74,13.886 C142.732,15.486 140.698,17.02 138.534,17.848 L138.16,17.512 C139.02,16.71 139.648,15.448 139.648,14.562 C139.648,13.802 139.26,13.404 138.372,13.404 C135.134,13.422 130.328,21.66 130.294,27.104 C130.286,28.526 130.904,29.32 132.048,29.304 C134.048,29.28 136.028,27.57 137.41,26.226 C137.654,25.988 138.21,25.342 138.758,24.65 C139.278,23.182 140.004,21.814 140.664,20.648 C144.512,13.86 149.752,11.712 154.974,11.906 C156.554,11.964 158.036,12.35 158.664,12.874 C157.274,15.742 154.876,21.302 153.382,26.15 C152.934,27.616 151.924,32.034 152.648,33.816 L152.184,34.014 C150.124,33.594 148.688,32.208 148.744,29.758 C148.766,28.878 148.99,27.562 149.208,26.81 L149.128,26.766 C146.862,29.998 143.966,31.886 141.454,31.886 C139.116,31.89 138.054,30.378 138.054,28.346 C138.054,28.13 138.064,27.916 138.08,27.7 C136.042,29.9 133.138,31.824 130.104,31.914 C127.194,32 125.768,30.568 125.396,28.586 C123.45,30.47 121.08,31.834 118.768,31.884 C116.536,31.934 115.388,30.802 115.388,28.97 C115.388,27.912 115.838,26.124 116.596,24.26 Z M142.754,27.948 C142.736,28.782 143.24,29.15 144.118,28.93 C146.624,28.306 149.324,24.124 151.12,19.962 C152.268,17.3 153.73,14.35 154.042,13.704 C153.202,13.51 152.196,13.548 150.95,14.134 C146.888,16.04 142.83,24.24 142.754,27.948 L142.754,27.948 Z" id="Fill-2"></path>
                <path d="M70.198,11.496 C72.114,11.516 73.068,12.312 73.04,13.85 C73.008,15.474 72.008,17.04 70.552,18.602 C67.924,21.326 65.008,22.948 62.104,24.394 C61.928,25.05 61.716,26.3 61.72,27.186 C61.73,28.622 62.332,29.428 63.82,29.41 C66.528,29.376 70.232,27.078 73.91,22.192 C75.138,18.894 76.35,15.658 76.956,14.17 C76,14.15 75.156,14.224 74.462,14.472 L74.272,14.05 C75.268,13.02 76.462,12.514 77.756,12.308 C82.136,3.254 88.41,2.098 93.484,2.056 C97.482,2.022 99.968,3.304 99.95,5.388 C99.94,6.726 98.24,8.682 95.81,9.846 L95.506,9.54 C96.57,8.412 96.966,7.332 96.832,5.978 C96.676,4.374 94.812,3.328 92.024,3.44 C87.556,3.618 84.492,6.97 82.312,12.164 C82.312,12.164 89.56,12.156 90.56,12.152 C91.562,12.146 93.444,12.116 94.24,11.952 L93.778,13.214 C93.56,13.274 93.226,13.342 92.91,13.446 C89.146,14.688 85.308,22.518 85.31,27.202 C85.31,28.532 85.622,29.492 86.95,29.49 C90.008,29.48 94.598,21.506 94.356,14.752 C94.34,14.33 94.73,14.132 95.926,13.962 C97.87,13.548 99.65,13.088 101.32,12.654 C102.522,12.342 103.734,11.986 104.632,11.978 C105.904,11.968 106.488,12.4 106.522,13.468 C106.558,14.596 105.664,17.01 104.542,19.55 L104.608,19.59 C107.44,15.184 110.818,11.884 114.22,11.898 C116.036,11.902 116.866,12.86 116.936,13.94 C117.074,16.122 114.796,20.126 113.51,22.874 C112.682,24.642 110.594,29.126 110.642,31.696 C110.658,32.49 110.696,33.194 110.972,33.728 L110.51,33.992 C108.192,33.426 106.846,31.914 106.802,29.412 C106.734,25.534 111.716,17.724 112.008,15.704 C112.12,15.184 111.97,14.818 111.43,14.822 C109.88,14.83 106.008,19.796 104.29,22.798 C102.836,25.332 101.722,27.754 99.94,31.496 L95.77,31.498 C95.786,31.384 99.562,22.52 101.736,16.454 C102.094,15.456 102.328,14.164 101.144,14.334 C100.544,14.418 99.328,14.636 98.07,14.864 C97.954,16.902 97.318,18.946 96.334,21.338 C94.624,25.498 90.142,31.822 84.81,31.802 C82.034,31.79 80.776,30.306 80.568,28.152 C80.098,23.266 84.018,15.862 88.688,13.79 C86.902,14.202 83.72,14.128 81.484,14.128 C80.094,17.65 78.31,22.764 76.194,28.65 C74.076,34.534 72.168,38.12 67.042,37.824 L66.836,37.484 C68.588,36.146 69.43,33.868 70.574,31.024 C70.962,30.064 71.63,28.294 72.4,26.234 C69.338,29.442 65.786,31.71 61.908,31.82 C58.28,31.924 56.86,29.668 56.8875946,26.994 C56.93,23.118 59.128,18.734 61.958,15.648 C64.104,13.35 67.44,11.47 70.198,11.496 Z M62.492,22.812 C66.588,20.376 69.788,17.06 69.802,14.466 C69.802,13.908 69.558,13.48 68.938,13.4759724 C66.396,13.462 63.522,18.778 62.492,22.812 L62.492,22.812 Z" id="Fill-3"></path>
                <path d="M127.032,8.86 C128.198,8.836 129.356,7.772 129.618,6.478 C129.878,5.186 129.144,4.154 127.976,4.178 C126.81,4.2 125.652,5.266 125.39,6.56 C125.13,7.85 125.864,8.882 127.032,8.86" id="Fill-4"></path>
                <path d="M85.308,45.964 C43.122,45.964 0.268,46.474 0.268,47.102 C0.268,47.728 43.122,48.238 85.308,48.238 C127.494,48.238 170.348,47.728 170.348,47.102 C170.348,46.474 127.494,45.964 85.308,45.964" id="Fill-5"></path>
                <path d="M17.18,15.884 L17.446,15.682 C17.066,15.022 16.92,13.928 16.938,13.264 C17.076,7.774 22.874,4.652 31.952,4.652 C31.952,4.652 34.202,4.652 36.968,4.652 C34.048,6.358 31.608,8.608 29.732,12.844 C28.924,14.672 25.09,24.502 23.524,28.934 C21.58,34.166 20.34,36.56 18.792,37.432 L19.038,37.9 C23.386,38.158 25.972,35.946 27.65,31.838 C29.238,27.954 31.336,21.79 32.38,19.04 C35.726,10.226 37.19,6.496 39.842,4.65 C43.534,4.648 47.13,4.648 47.14,4.646 C51.128,4.53 52.832,3.54 54.062,1.996 L53.79,1.658 C52.798,2.178 50.624,2.284 48.794,2.3 L30.77,2.3 C20.644,2.3 14.434,5.612 13.416,10.576 C12.928,12.958 14.252,15.576 17.18,15.884" id="Fill-6"></path>
            </g>
        </g>
    </g>
</svg>