<?xml version="1.0" encoding="UTF-8"?>
<svg width="225px" height="36px" viewBox="0 0 225 36" version="1.1" xmlns="http://www.w3.org/2000/svg" xmlns:xlink="http://www.w3.org/1999/xlink">
    <!-- Generator: Sketch 58 (84663) - https://sketch.com -->
    <title>endesa</title>
    <desc>Created with Sketch.</desc>
    <defs>
        <path d="M0.342727273,14.95 C0.342727273,8.93157895 5.39136364,2.56578947 12.8865455,2.56578947 C12.9577273,2.56578947 13.0289091,2.56578947 13.0974545,2.56842105 L13.0974545,7.82631579 C13.0605455,7.82631579 13.021,7.82631579 12.9840909,7.82631579 C9.29318182,7.82631579 6.06890909,11.3184211 5.57854545,14.4210526 L3.75154545,19.3552632 L0.471909091,18.1447368" id="path-1"></path>
        <path d="M10.5111818,7.32105263 L12.3355455,2.38684211 L15.2698182,3.46842105 L15.3831818,3.95526316 C15.544,4.69473684 15.602,5.13421053 15.602,6.53947368 C15.602,12.8526316 10.759,19.4 2.70490909,19.4 C2.56254545,19.4 2.41754545,19.3973684 2.27781818,19.3947368 L2.27781818,14.1342105 C2.38590909,14.1394737 2.49663636,14.1421053 2.61,14.1421053" id="path-3"></path>
        <path d="M0.427090909,3.90263158 L5.64181818,2.51578947 C5.64181818,2.51578947 6.47227273,8.76578947 12.9840909,8.87631579 L12.9840909,14.1342105" id="path-5"></path>
        <path d="M2.43863636,7.82631579 L2.43863636,2.56578947 C13.5614545,2.62368421 15.3093636,12.6026316 15.3093636,12.6026316 L10.0313636,13.9078947" id="path-7"></path>
        <path d="M1.33663636,3.61315789 C3.89390909,3.61315789 6.26663636,2.83684211 8.23863636,1.51315789 L11.1755455,5.87894737 C8.36518182,7.76842105 4.98009091,8.87368421 1.33663636,8.87368421" id="path-9"></path>
        <path d="M1.87972727,7.83684211 C5.08554545,4.58421053 9.54627273,2.56578947 14.4762727,2.56578947 L14.4762727,7.82631579 C11.0173636,7.82631579 7.888,9.24210526 5.63918182,11.5263158" id="path-11"></path>
        <linearGradient x1="178.107995%" y1="322.881495%" x2="248.107995%" y2="301.717995%" id="linearGradient-13">
            <stop stop-color="#0089BC" offset="0%"></stop>
            <stop stop-color="#007FB8" offset="100%"></stop>
        </linearGradient>
        <path d="M2.09063636,15.0842105 C2.04845455,10.1552632 4.031,5.68947368 7.26318182,2.46578947 L10.9883636,6.18684211 C8.74745455,8.42631579 7.36072727,11.5157895 7.36072727,14.9289474 C7.36072727,14.9684211 7.36072727,15.0026316 7.36072727,15.0368421" id="path-14"></path>
        <linearGradient x1="296.309503%" y1="240.996872%" x2="316.525369%" y2="172.323253%" id="linearGradient-16">
            <stop stop-color="#0096C4" offset="0%"></stop>
            <stop stop-color="#0089BC" offset="100%"></stop>
        </linearGradient>
        <path d="M2.08800027,1.77414906 L2.095229,1.77105263 L7.36072727,1.77105263 C7.36072727,5.22631579 8.77909091,8.35 11.0674545,10.5921053 L7.37127273,14.3447368 C4.11341037,11.1480387 2.08884895,6.69660362 2.08800027,1.77414906" id="path-17"></path>
        <linearGradient x1="-226.151629%" y1="168.800753%" x2="-204.823039%" y2="238.267057%" id="linearGradient-19">
            <stop stop-color="#0096C4" offset="0%"></stop>
            <stop stop-color="#0BA3CB" offset="100%"></stop>
        </linearGradient>
        <path d="M1.99045455,6.34210526 L5.71563636,2.62105263 C7.95918182,4.86052632 11.0569091,6.24473684 14.4762727,6.24473684 C14.5105455,6.24473684 14.5500909,6.24473684 14.5843636,6.24473684 L14.6318182,11.5026316" id="path-20"></path>
        <linearGradient x1="-158.417101%" y1="335.86786%" x2="-77.4014599%" y2="359.113075%" id="linearGradient-22">
            <stop stop-color="#0BA3CB" offset="0%"></stop>
            <stop stop-color="#62BED7" offset="100%"></stop>
        </linearGradient>
        <path d="M0.374363636,3.61315789 C2.93163636,3.61315789 5.307,2.83684211 7.279,1.51315789 L10.2159091,5.87894737 C7.40290909,7.76842105 4.02045455,8.87368421 0.374363636,8.87368421" id="path-23"></path>
        <path d="M0.181909091,2.56842105 C0.234636364,2.56578947 0.287363636,2.56578947 0.342727273,2.56578947 C5.20945455,2.56578947 9.61745455,4.44473684 12.818,7.62631579 L9.11654545,11.4157895 C6.86509091,9.18421053 3.74890909,7.82631579 0.334818182,7.82631579 C0.297909091,7.82631579 0.261,7.82631579 0.226727273,7.82894737" id="path-25"></path>
        <linearGradient x1="230.632172%" y1="-197.629747%" x2="161.623201%" y2="-217.573092%" id="linearGradient-27">
            <stop stop-color="#0075B0" offset="0%"></stop>
            <stop stop-color="#007FB8" offset="100%"></stop>
        </linearGradient>
        <path d="M0.922727273,7.83684211 C4.12590909,4.58421053 8.584,2.56578947 13.5166364,2.56578947 L13.5166364,7.82631579 C10.0550909,7.82631579 6.92836364,9.24210526 4.67954545,11.5263158" id="path-28"></path>
        <linearGradient x1="178.128533%" y1="322.995755%" x2="248.141093%" y2="301.82488%" id="linearGradient-30">
            <stop stop-color="#0089BC" offset="0%"></stop>
            <stop stop-color="#007FB8" offset="100%"></stop>
        </linearGradient>
        <path d="M1.12836364,15.0842105 C1.08881818,10.1552632 3.07136364,5.68947368 6.30090909,2.46578947 L10.0287273,6.18684211 C7.78781818,8.42631579 6.40109091,11.5157895 6.40109091,14.9289474 C6.40109091,14.9684211 6.40109091,15.0026316 6.40109091,15.0368421" id="path-31"></path>
        <linearGradient x1="296.388907%" y1="240.986444%" x2="316.609109%" y2="172.314911%" id="linearGradient-33">
            <stop stop-color="#0096C4" offset="0%"></stop>
            <stop stop-color="#0089BC" offset="100%"></stop>
        </linearGradient>
        <path d="M1.1283639,1.77414906 L1.13559263,1.77105263 L6.40109091,1.77105263 C6.40109091,5.22631579 7.81945455,8.35 10.1051818,10.5921053 L6.41163636,14.3447368 C3.1511382,11.1480387 1.12921148,6.69660362 1.1283639,1.77414906" id="path-34"></path>
        <linearGradient x1="-226.063066%" y1="168.790289%" x2="-204.740738%" y2="238.256593%" id="linearGradient-36">
            <stop stop-color="#0096C4" offset="0%"></stop>
            <stop stop-color="#0BA3CB" offset="100%"></stop>
        </linearGradient>
        <path d="M1.02818182,6.34210526 L4.756,2.62105263 C6.99690909,4.86052632 10.0946364,6.24473684 13.5166364,6.24473684 C13.5509091,6.24473684 13.5878182,6.24473684 13.6247273,6.24473684 L13.6695455,11.5026316" id="path-37"></path>
        <linearGradient x1="-158.440042%" y1="335.854695%" x2="-77.3952033%" y2="359.108686%" id="linearGradient-39">
            <stop stop-color="#0BA3CB" offset="0%"></stop>
            <stop stop-color="#62BED7" offset="100%"></stop>
        </linearGradient>
        <path d="M2.15390909,6.1 L5.84481818,2.34736842 C8.43372727,4.87368421 10.2449091,8.18157895 10.8908182,11.8894737 L5.50472727,11.8894737" id="path-40"></path>
        <linearGradient x1="370.259166%" y1="-110.187534%" x2="338.523663%" y2="-169.655268%" id="linearGradient-42">
            <stop stop-color="#006DAA" offset="0%"></stop>
            <stop stop-color="#0075B0" offset="100%"></stop>
        </linearGradient>
        <path d="M1.21272727,2.56842105 C1.26545455,2.56578947 1.31554545,2.56578947 1.36827273,2.56578947 C6.23763636,2.56578947 10.6588182,4.53684211 13.8646364,7.71842105 L10.1394545,11.4368421 C7.888,9.20526316 4.78236364,7.82631579 1.36827273,7.82631579 C1.33136364,7.82631579 1.29445455,7.82631579 1.26018182,7.82894737" id="path-43"></path>
        <linearGradient x1="231.064805%" y1="-198.394819%" x2="161.896228%" y2="-218.407111%" id="linearGradient-45">
            <stop stop-color="#0075B0" offset="0%"></stop>
            <stop stop-color="#007FB8" offset="100%"></stop>
        </linearGradient>
        <path d="M1.95354545,7.83684211 C5.15672727,4.58421053 9.61481818,2.56578947 14.5500909,2.56578947 L14.5500909,7.82631579 C11.0885455,7.82631579 7.96181818,9.24210526 5.713,11.5263158" id="path-46"></path>
        <linearGradient x1="178.110088%" y1="322.87555%" x2="248.126831%" y2="301.707592%" id="linearGradient-48">
            <stop stop-color="#0089BC" offset="0%"></stop>
            <stop stop-color="#007FB8" offset="100%"></stop>
        </linearGradient>
        <path d="M2.16181818,15.0842105 C2.11963636,10.1552632 4.10745455,5.68947368 7.33436364,2.46578947 L11.0621818,6.18684211 C8.81863636,8.42631579 7.43454545,11.5157895 7.43454545,14.9289474 C7.43454545,14.9684211 7.43454545,15.0026316 7.43454545,15.0368421 L2.16445455,15.0842105" id="path-49"></path>
        <linearGradient x1="296.403059%" y1="240.948905%" x2="316.629332%" y2="172.256517%" id="linearGradient-51">
            <stop stop-color="#0096C4" offset="0%"></stop>
            <stop stop-color="#0089BC" offset="100%"></stop>
        </linearGradient>
        <path d="M2.16181845,1.77414906 L2.16904718,1.77105263 L7.43454545,1.77105263 C7.43454545,5.22631579 8.85290909,8.35 11.1386364,10.5921053 L7.44509091,14.3447368 C4.18459274,11.1480387 2.16266603,6.69660362 2.16181845,1.77414906" id="path-52"></path>
        <linearGradient x1="-226.061569%" y1="168.790289%" x2="-204.739242%" y2="238.256593%" id="linearGradient-54">
            <stop stop-color="#0096C4" offset="0%"></stop>
            <stop stop-color="#0BA3CB" offset="100%"></stop>
        </linearGradient>
        <path d="M2.06163636,6.34210526 L5.78945455,2.62105263 C8.03036364,4.86052632 11.1280909,6.24473684 14.5500909,6.24473684 C14.5843636,6.24473684 14.6212727,6.24473684 14.6581818,6.24473684 L14.703,11.5026316" id="path-55"></path>
        <linearGradient x1="-158.402503%" y1="335.86786%" x2="-77.3889468%" y2="359.111612%" id="linearGradient-57">
            <stop stop-color="#0BA3CB" offset="0%"></stop>
            <stop stop-color="#62BED7" offset="100%"></stop>
        </linearGradient>
        <path d="M1.36827273,6.24473684 C5.37290909,6.24473684 8.932,4.35 11.1966364,1.40526316 L15.3779091,4.61052632 C12.151,8.80263158 7.076,11.5052632 1.36827273,11.5052632" id="path-58"></path>
        <path d="M0.342727273,6.1 L4.03627273,2.34736842 C6.62254545,4.87368421 8.439,8.18157895 9.08227273,11.8894737 L3.69618182,11.8894737" id="path-60"></path>
        <linearGradient x1="370.376048%" y1="-110.187534%" x2="338.630969%" y2="-169.655268%" id="linearGradient-62">
            <stop stop-color="#006DAA" offset="0%"></stop>
            <stop stop-color="#0075B0" offset="100%"></stop>
        </linearGradient>
        <path d="M2.04054545,2.56842105 C2.09327273,2.56578947 2.14336364,2.56578947 2.19609091,2.56578947 C7.06809091,2.56578947 11.4892727,4.53684211 14.6924545,7.71842105 L10.9672727,11.4368421 C8.71581818,9.20526316 5.61018182,7.82631579 2.19609091,7.82631579 C2.15918182,7.82631579 2.12490909,7.82631579 2.08536364,7.82894737" id="path-63"></path>
        <linearGradient x1="231.096062%" y1="-198.387527%" x2="161.923317%" y2="-218.401278%" id="linearGradient-65">
            <stop stop-color="#0075B0" offset="0%"></stop>
            <stop stop-color="#007FB8" offset="100%"></stop>
        </linearGradient>
        <path d="M18.0142727,5.20071526 L21.2490909,12.7815789 L7.35018182,18.6894737 L2.18290909,6.57368421 L16.0791818,0.665789474 L18.0142727,5.20071526 L18.0142727,5.19736842 C13.0816364,5.19736842 8.62090909,7.21578947 5.41772727,10.4684211 L9.17454545,14.1578947 C11.426,11.8736842 14.5527273,10.4578947 18.0142727,10.4578947 L18.0142727,5.20071526" id="path-66"></path>
        <linearGradient x1="178.126831%" y1="322.86812%" x2="248.128924%" y2="301.70462%" id="linearGradient-68">
            <stop stop-color="#0089BC" offset="0%"></stop>
            <stop stop-color="#007FB8" offset="100%"></stop>
        </linearGradient>
        <path d="M0.355909091,15.0842105 C0.311090909,10.1552632 2.29627273,5.68947368 5.52581818,2.46578947 L9.25363636,6.18684211 C7.01009091,8.42631579 5.62336364,11.5157895 5.62336364,14.9289474 C5.62336364,14.9684211 5.626,15.0026316 5.626,15.0368421" id="path-69"></path>
        <linearGradient x1="296.309092%" y1="240.996872%" x2="316.525147%" y2="172.321168%" id="linearGradient-71">
            <stop stop-color="#0096C4" offset="0%"></stop>
            <stop stop-color="#0089BC" offset="100%"></stop>
        </linearGradient>
        <path d="M5.633229,4.40263158 L13.2081818,1.15789474 L19.169,15.0210526 L7.02327273,20.2236842 L1.06245455,6.36052632 L5.633229,4.40263158 L5.62863636,4.40263158 C5.62863636,9.32631579 7.64809091,13.7789474 10.9092727,16.9763158 L14.6028182,13.2236842 C12.3144545,10.9815789 10.8960909,7.85789474 10.8960909,4.40263158" id="path-72"></path>
        <linearGradient x1="-225.990969%" y1="168.790289%" x2="-204.674904%" y2="238.258686%" id="linearGradient-74">
            <stop stop-color="#0096C4" offset="0%"></stop>
            <stop stop-color="#0BA3CB" offset="100%"></stop>
        </linearGradient>
        <path d="M0.253090909,6.34210526 L3.98090909,2.62105263 C6.22181818,4.86052632 9.31954545,6.24473684 12.7415455,6.24473684 C12.7784545,6.24473684 12.8127273,6.24473684 12.8496364,6.24473684 L12.8944545,11.5026316" id="path-75"></path>
        <linearGradient x1="-158.442127%" y1="335.854695%" x2="-77.4035454%" y2="359.107224%" id="linearGradient-77">
            <stop stop-color="#0BA3CB" offset="0%"></stop>
            <stop stop-color="#62BED7" offset="100%"></stop>
        </linearGradient>
        <path d="M2.19609091,6.24473684 C6.20072727,6.24473684 9.75718182,4.35 12.0244545,1.40526316 L16.2057273,4.61052632 C12.9761818,8.80263158 7.90118182,11.5052632 2.19609091,11.5052632" id="path-78"></path>
        <path d="M11.7344545,18.8736842 L11.7344545,17.1447368 C11.7344545,11.9447368 7.59272727,7.91315789 2.50981818,7.83421053 L2.50981818,2.57105263 C10.5032727,2.65263158 17.0045455,9.05789474 17.0045455,17.1447368 L17.0045455,18.8736842" id="path-80"></path>
        <linearGradient x1="-275.060022%" y1="47.1380145%" x2="-275.060022%" y2="100%" id="linearGradient-82">
            <stop stop-color="#0096C4" offset="0%"></stop>
            <stop stop-color="#0096C4" offset="100%"></stop>
        </linearGradient>
        <path d="M13.2951818,7.84210526 C13.1633636,7.83421053 13.0341818,7.83157895 12.8997273,7.83157895 C5.713,7.83157895 1.96409091,13.8342105 1.17054545,18.0578947 L1.17054545,7.37368421 C4.18654545,4.40526316 8.31509091,2.57105263 12.905,2.57105263 C13.0368182,2.57105263 13.166,2.57368421 13.2951818,2.57631579" id="path-83"></path>
        <linearGradient x1="-0.00869754294%" y1="460.893798%" x2="99.9956512%" y2="460.893798%" id="linearGradient-85">
            <stop stop-color="#006DAA" offset="0%"></stop>
            <stop stop-color="#0096C4" offset="100%"></stop>
        </linearGradient>
        <path d="M1.12836364,6.07631579 L4.80081818,2.25789474 C4.88518182,2.34210526 4.97218182,2.41578947 5.05918182,2.50526316 L5.05918182,13.6105263 L4.814,13.6105263 C4.80081818,13.4710526 4.77972727,13.3315789 4.76127273,13.1947368 C4.727,13 4.727,13 4.71645455,12.9368421 C4.68481818,12.7394737 4.495,11.9473684 4.46863636,11.8315789" id="path-86"></path>
        <linearGradient x1="181.36614%" y1="-48.4724154%" x2="171.027377%" y2="-118.51414%" id="linearGradient-88">
            <stop stop-color="#006DAA" offset="0%"></stop>
            <stop stop-color="#0075B0" offset="100%"></stop>
        </linearGradient>
        <path d="M1.13890909,2.56842105 C1.189,2.56842105 1.24436364,2.56578947 1.29445455,2.56578947 C6.13745455,2.56578947 10.6060909,4.55263158 13.8066364,7.70526316 L13.8092727,7.70263158 C13.8224545,7.71842105 13.8382727,7.73684211 13.8540909,7.75 C13.8567273,7.75263158 13.8567273,7.75526316 13.8593636,7.75789474 C13.8725455,7.77105263 13.8830909,7.78157895 13.8962727,7.79473684 L13.8962727,18.8736842 L13.6405455,18.8736842 C13.3347273,15.9736842 11.9875455,13.3736842 10.0419091,11.4184211 C7.79309091,9.2 4.69536364,7.82631579 1.29445455,7.82631579 C1.25754545,7.82631579 1.22063636,7.82631579 1.18636364,7.82894737" id="path-89"></path>
        <linearGradient x1="-276.781841%" y1="415.95288%" x2="-217.592414%" y2="490.584154%" id="linearGradient-91">
            <stop stop-color="#007FB8" offset="0%"></stop>
            <stop stop-color="#006DAA" offset="100%"></stop>
        </linearGradient>
    </defs>
    <g id="Logos" stroke="none" stroke-width="1" fill="none" fill-rule="evenodd">
        <g id="Endesa" transform="translate(-5.000000, -13.000000)">
            <g id="endesa">
                <polyline id="Fill-1" fill="#AAAAA3" points="169.033091 24.9473684 167.206091 29.8815789 184.508545 36.2684211 186.335545 31.3342105 169.033091 24.9473684"></polyline>
                <g id="Group-4" transform="translate(163.454545, 10.526316)">
                    <mask id="mask-2" fill="white">
                        <use xlink:href="#path-1"></use>
                    </mask>
                    <g id="Clip-3"></g>
                    <path d="M0.342727273,14.95 C0.342727273,16.3657895 0.471909091,18.1447368 0.471909091,18.1447368 L3.75154545,19.3552632 L5.57854545,14.4210526 C6.06890909,11.3184211 9.29318182,7.82631579 12.9840909,7.82631579 C13.021,7.82631579 13.0605455,7.82631579 13.0974545,7.82631579 L13.0974545,2.56842105 C13.0289091,2.56578947 12.9577273,2.56578947 12.8865455,2.56578947 C5.39136364,2.56578947 0.342727273,8.93157895 0.342727273,14.95" id="Fill-2" mask="url(#mask-2)"></path>
                </g>
                <g id="Group-7" transform="translate(174.000000, 28.947368)">
                    <mask id="mask-4" fill="white">
                        <use xlink:href="#path-3"></use>
                    </mask>
                    <g id="Clip-6"></g>
                    <path d="M10.5111818,7.32105263 C10.5111818,11.1368421 6.90463636,14.1421053 2.61,14.1421053 C2.49663636,14.1421053 2.38590909,14.1394737 2.27781818,14.1342105 L2.27781818,19.3947368 C2.41754545,19.3973684 2.56254545,19.4 2.70490909,19.4 C10.759,19.4 15.602,12.8526316 15.602,6.53947368 C15.602,5.13421053 15.544,4.69473684 15.3831818,3.95526316 L15.2698182,3.46842105 L12.3355455,2.38684211 L10.5111818,7.32105263" id="Fill-5" mask="url(#mask-4)"></path>
                </g>
                <g id="Group-10" transform="translate(163.454545, 34.210526)">
                    <mask id="mask-6" fill="white">
                        <use xlink:href="#path-5"></use>
                    </mask>
                    <g id="Clip-9"></g>
                    <path d="M0.427090909,3.90263158 C0.427090909,3.90263158 2.25409091,13.9710526 12.9840909,14.1342105 L12.9840909,8.87631579 C6.47227273,8.76578947 5.64181818,2.51578947 5.64181818,2.51578947 L0.427090909,3.90263158" id="Fill-8" mask="url(#mask-6)"></path>
                </g>
                <g id="Group-13" transform="translate(174.000000, 10.526316)">
                    <mask id="mask-8" fill="white">
                        <use xlink:href="#path-7"></use>
                    </mask>
                    <g id="Clip-12"></g>
                    <path d="M2.43863636,7.82631579 C9.35645455,7.82631579 10.0313636,13.9078947 10.0313636,13.9078947 L15.3093636,12.6026316 C15.3093636,12.6026316 13.5614545,2.62368421 2.43863636,2.56578947 L2.43863636,7.82631579" id="Fill-11" mask="url(#mask-8)"></path>
                </g>
                <g id="Group-16" transform="translate(210.909091, 39.473684)">
                    <mask id="mask-10" fill="white">
                        <use xlink:href="#path-9"></use>
                    </mask>
                    <g id="Clip-15"></g>
                    <path d="M1.33663636,3.61315789 L1.33663636,8.87368421 C4.98009091,8.87368421 8.36518182,7.76842105 11.1755455,5.87894737 L8.23863636,1.51315789 C6.26663636,2.83684211 3.89390909,3.61315789 1.33663636,3.61315789" id="Fill-14" mask="url(#mask-10)"></path>
                </g>
                <g id="Group-19" transform="translate(197.727273, 10.526316)">
                    <mask id="mask-12" fill="white">
                        <use xlink:href="#path-11"></use>
                    </mask>
                    <g id="Clip-18"></g>
                    <path d="M1.87972727,7.83684211 L5.63918182,11.5263158 C7.888,9.24210526 11.0173636,7.82631579 14.4762727,7.82631579 L14.4762727,2.56578947 C9.54627273,2.56578947 5.08554545,4.58421053 1.87972727,7.83684211" id="Fill-17" fill="url(#linearGradient-13)" mask="url(#mask-12)"></path>
                </g>
                <g id="Group-22" transform="translate(192.454545, 15.789474)">
                    <mask id="mask-15" fill="white">
                        <use xlink:href="#path-14"></use>
                    </mask>
                    <g id="Clip-21"></g>
                    <path d="M2.09063636,15.0842105 L7.36072727,15.0368421 C7.36072727,15.0026316 7.36072727,14.9684211 7.36072727,14.9289474 C7.36072727,11.5157895 8.74745455,8.42631579 10.9883636,6.18684211 L7.26318182,2.46578947 C4.031,5.68947368 2.04845455,10.1552632 2.09063636,15.0842105" id="Fill-20" fill="url(#linearGradient-16)" mask="url(#mask-15)"></path>
                </g>
                <g id="Group-25" transform="translate(192.454545, 28.947368)">
                    <mask id="mask-18" fill="white">
                        <use xlink:href="#path-17"></use>
                    </mask>
                    <g id="Clip-24"></g>
                    <path d="M2.088,1.77105263 C2.088,6.69473684 4.11272727,11.1473684 7.37127273,14.3447368 L11.0674545,10.5921053 C8.77909091,8.35 7.36072727,5.22631579 7.36072727,1.77105263 L2.088,1.77105263" id="Fill-23" fill="url(#linearGradient-19)" mask="url(#mask-18)"></path>
                </g>
                <g id="Group-28" transform="translate(197.727273, 36.842105)">
                    <mask id="mask-21" fill="white">
                        <use xlink:href="#path-20"></use>
                    </mask>
                    <g id="Clip-27"></g>
                    <path d="M1.99045455,6.34210526 C5.22,9.56578947 9.69127273,11.5473684 14.6318182,11.5026316 L14.5843636,6.24473684 C14.5500909,6.24473684 14.5105455,6.24473684 14.4762727,6.24473684 C11.0569091,6.24473684 7.95918182,4.86052632 5.71563636,2.62105263 L1.99045455,6.34210526" id="Fill-26" fill="url(#linearGradient-22)" mask="url(#mask-21)"></path>
                </g>
                <g id="Group-31" transform="translate(100.181818, 39.473684)">
                    <mask id="mask-24" fill="white">
                        <use xlink:href="#path-23"></use>
                    </mask>
                    <g id="Clip-30"></g>
                    <path d="M0.374363636,3.61315789 L0.374363636,8.87368421 C4.02045455,8.87368421 7.40290909,7.76842105 10.2159091,5.87894737 L7.279,1.51315789 C5.307,2.83684211 2.93163636,3.61315789 0.374363636,3.61315789" id="Fill-29" mask="url(#mask-24)"></path>
                </g>
                <g id="Group-34" transform="translate(100.181818, 10.526316)">
                    <mask id="mask-26" fill="white">
                        <use xlink:href="#path-25"></use>
                    </mask>
                    <g id="Clip-33"></g>
                    <path d="M0.181909091,2.56842105 L0.226727273,7.82894737 C0.261,7.82631579 0.297909091,7.82631579 0.334818182,7.82631579 C3.74890909,7.82631579 6.86509091,9.18421053 9.11654545,11.4157895 L12.818,7.62631579 C9.61745455,4.44473684 5.20945455,2.56578947 0.342727273,2.56578947 C0.287363636,2.56578947 0.234636364,2.56578947 0.181909091,2.56842105" id="Fill-32" fill="url(#linearGradient-27)" mask="url(#mask-26)"></path>
                </g>
                <g id="Group-37" transform="translate(87.000000, 10.526316)">
                    <mask id="mask-29" fill="white">
                        <use xlink:href="#path-28"></use>
                    </mask>
                    <g id="Clip-36"></g>
                    <path d="M0.922727273,7.83684211 L4.67954545,11.5263158 C6.92836364,9.24210526 10.0550909,7.82631579 13.5166364,7.82631579 L13.5166364,2.56578947 C8.584,2.56578947 4.12590909,4.58421053 0.922727273,7.83684211" id="Fill-35" fill="url(#linearGradient-30)" mask="url(#mask-29)"></path>
                </g>
                <g id="Group-40" transform="translate(81.727273, 15.789474)">
                    <mask id="mask-32" fill="white">
                        <use xlink:href="#path-31"></use>
                    </mask>
                    <g id="Clip-39"></g>
                    <path d="M1.12836364,15.0842105 L6.40109091,15.0368421 C6.40109091,15.0026316 6.40109091,14.9684211 6.40109091,14.9289474 C6.40109091,11.5157895 7.78781818,8.42631579 10.0287273,6.18684211 L6.30090909,2.46578947 C3.07136364,5.68947368 1.08881818,10.1552632 1.12836364,15.0842105" id="Fill-38" fill="url(#linearGradient-33)" mask="url(#mask-32)"></path>
                </g>
                <g id="Group-43" transform="translate(81.727273, 28.947368)">
                    <mask id="mask-35" fill="white">
                        <use xlink:href="#path-34"></use>
                    </mask>
                    <g id="Clip-42"></g>
                    <path d="M1.12836364,1.77105263 C1.12836364,6.69473684 3.15045455,11.1473684 6.41163636,14.3447368 L10.1051818,10.5921053 C7.81945455,8.35 6.40109091,5.22631579 6.40109091,1.77105263 L1.12836364,1.77105263" id="Fill-41" fill="url(#linearGradient-36)" mask="url(#mask-35)"></path>
                </g>
                <g id="Group-46" transform="translate(87.000000, 36.842105)">
                    <mask id="mask-38" fill="white">
                        <use xlink:href="#path-37"></use>
                    </mask>
                    <g id="Clip-45"></g>
                    <path d="M1.02818182,6.34210526 C4.26036364,9.56578947 8.73427273,11.5473684 13.6695455,11.5026316 L13.6247273,6.24473684 C13.5878182,6.24473684 13.5509091,6.24473684 13.5166364,6.24473684 C10.0946364,6.24473684 6.99690909,4.86052632 4.756,2.62105263 L1.02818182,6.34210526" id="Fill-44" fill="url(#linearGradient-39)" mask="url(#mask-38)"></path>
                </g>
                <g id="Group-49" transform="translate(147.636364, 15.789474)">
                    <mask id="mask-41" fill="white">
                        <use xlink:href="#path-40"></use>
                    </mask>
                    <g id="Clip-48"></g>
                    <path d="M2.15390909,6.1 C3.75945455,7.66315789 4.94054545,9.65526316 5.50472727,11.8894737 L10.8908182,11.8894737 C10.2449091,8.18157895 8.43372727,4.87368421 5.84481818,2.34736842 L2.15390909,6.1" id="Fill-47" fill="url(#linearGradient-42)" mask="url(#mask-41)"></path>
                </g>
                <g id="Group-52" transform="translate(139.727273, 10.526316)">
                    <mask id="mask-44" fill="white">
                        <use xlink:href="#path-43"></use>
                    </mask>
                    <g id="Clip-51"></g>
                    <path d="M1.21272727,2.56842105 L1.26018182,7.82894737 C1.29445455,7.82631579 1.33136364,7.82631579 1.36827273,7.82631579 C4.78236364,7.82631579 7.888,9.20526316 10.1394545,11.4368421 L13.8646364,7.71842105 C10.6588182,4.53684211 6.23763636,2.56578947 1.36827273,2.56578947 C1.31554545,2.56578947 1.26545455,2.56578947 1.21272727,2.56842105" id="Fill-50" fill="url(#linearGradient-45)" mask="url(#mask-44)"></path>
                </g>
                <g id="Group-55" transform="translate(126.545455, 10.526316)">
                    <mask id="mask-47" fill="white">
                        <use xlink:href="#path-46"></use>
                    </mask>
                    <g id="Clip-54"></g>
                    <path d="M1.95354545,7.83684211 L5.713,11.5263158 C7.96181818,9.24210526 11.0885455,7.82631579 14.5500909,7.82631579 L14.5500909,2.56578947 C9.61481818,2.56578947 5.15672727,4.58421053 1.95354545,7.83684211" id="Fill-53" fill="url(#linearGradient-48)" mask="url(#mask-47)"></path>
                </g>
                <g id="Group-58" transform="translate(121.272727, 15.789474)">
                    <mask id="mask-50" fill="white">
                        <use xlink:href="#path-49"></use>
                    </mask>
                    <g id="Clip-57"></g>
                    <path d="M2.16181818,15.0842105 L2.16445455,15.0842105 L7.43454545,15.0368421 C7.43454545,15.0026316 7.43454545,14.9684211 7.43454545,14.9289474 C7.43454545,11.5157895 8.81863636,8.42631579 11.0621818,6.18684211 L7.33436364,2.46578947 C4.10745455,5.68947368 2.11963636,10.1552632 2.16181818,15.0842105" id="Fill-56" fill="url(#linearGradient-51)" mask="url(#mask-50)"></path>
                </g>
                <g id="Group-61" transform="translate(121.272727, 28.947368)">
                    <mask id="mask-53" fill="white">
                        <use xlink:href="#path-52"></use>
                    </mask>
                    <g id="Clip-60"></g>
                    <path d="M2.16181818,1.77105263 C2.16181818,6.69473684 4.18390909,11.1473684 7.44509091,14.3447368 L11.1386364,10.5921053 C8.85290909,8.35 7.43454545,5.22631579 7.43454545,1.77105263 L2.16181818,1.77105263" id="Fill-59" fill="url(#linearGradient-54)" mask="url(#mask-53)"></path>
                </g>
                <g id="Group-64" transform="translate(126.545455, 36.842105)">
                    <mask id="mask-56" fill="white">
                        <use xlink:href="#path-55"></use>
                    </mask>
                    <g id="Clip-63"></g>
                    <path d="M2.06163636,6.34210526 C5.29118182,9.56578947 9.76509091,11.5473684 14.703,11.5026316 L14.6581818,6.24473684 C14.6212727,6.24473684 14.5843636,6.24473684 14.5500909,6.24473684 C11.1280909,6.24473684 8.03036364,4.86052632 5.78945455,2.62105263 L2.06163636,6.34210526" id="Fill-62" fill="url(#linearGradient-57)" mask="url(#mask-56)"></path>
                </g>
                <g id="Group-67" transform="translate(139.727273, 36.842105)">
                    <mask id="mask-59" fill="white">
                        <use xlink:href="#path-58"></use>
                    </mask>
                    <g id="Clip-66"></g>
                    <path d="M1.36827273,6.24473684 L1.36827273,11.5052632 C7.076,11.5052632 12.151,8.80263158 15.3779091,4.61052632 L11.1966364,1.40526316 C8.932,4.35 5.37290909,6.24473684 1.36827273,6.24473684" id="Fill-65" mask="url(#mask-59)"></path>
                </g>
                <polygon id="Fill-70" fill="#AAAAA3" points="45.9887273 32.9421053 51.2588182 32.9421053 51.2588182 14.5289474 45.9887273 14.5289474"></polygon>
                <polygon id="Fill-71" fill="#AAAAA3" points="72.3708182 47.8131579 77.6409091 47.8131579 77.6409091 29.3973684 72.3708182 29.3973684"></polygon>
                <polygon id="Fill-72" fill="#AAAAA3" points="140.083182 32.9421053 158.529818 32.9421053 158.529818 27.6789474 140.083182 27.6789474"></polygon>
                <g id="Group-75" transform="translate(31.636364, 15.789474)">
                    <mask id="mask-61" fill="white">
                        <use xlink:href="#path-60"></use>
                    </mask>
                    <g id="Clip-74"></g>
                    <path d="M0.342727273,6.1 C1.94827273,7.66315789 3.132,9.65526316 3.69618182,11.8894737 L9.08227273,11.8894737 C8.439,8.18157895 6.62254545,4.87368421 4.03627273,2.34736842 L0.342727273,6.1" id="Fill-73" fill="url(#linearGradient-62)" mask="url(#mask-61)"></path>
                </g>
                <g id="Group-78" transform="translate(21.090909, 10.526316)">
                    <mask id="mask-64" fill="white">
                        <use xlink:href="#path-63"></use>
                    </mask>
                    <g id="Clip-77"></g>
                    <path d="M2.04054545,2.56842105 L2.04054545,2.56842105 L2.08536364,7.82894737 C2.12490909,7.82631579 2.15918182,7.82631579 2.19609091,7.82631579 C5.61018182,7.82631579 8.71581818,9.20526316 10.9672727,11.4368421 L14.6924545,7.71842105 C11.4892727,4.53684211 7.06809091,2.56578947 2.19609091,2.56578947 C2.14336364,2.56578947 2.09327273,2.56578947 2.04054545,2.56842105" id="Fill-76" fill="url(#linearGradient-65)" mask="url(#mask-64)"></path>
                </g>
                <g id="Group-81" transform="translate(5.272727, 7.894737)">
                    <mask id="mask-67" fill="white">
                        <use xlink:href="#path-66"></use>
                    </mask>
                    <g id="Clip-80"></g>
                    <path d="M5.41772727,10.4684211 L9.17454545,14.1578947 C11.426,11.8736842 14.5527273,10.4578947 18.0142727,10.4578947 L18.0142727,5.19736842 C13.0816364,5.19736842 8.62090909,7.21578947 5.41772727,10.4684211" id="Fill-79" fill="url(#linearGradient-68)" mask="url(#mask-67)"></path>
                </g>
                <g id="Group-84" transform="translate(5.272727, 15.789474)">
                    <mask id="mask-70" fill="white">
                        <use xlink:href="#path-69"></use>
                    </mask>
                    <g id="Clip-83"></g>
                    <path d="M0.355909091,15.0842105 L5.626,15.0368421 C5.626,15.0026316 5.62336364,14.9684211 5.62336364,14.9289474 C5.62336364,11.5157895 7.01009091,8.42631579 9.25363636,6.18684211 L5.52581818,2.46578947 C2.29627273,5.68947368 0.311090909,10.1552632 0.355909091,15.0842105" id="Fill-82" fill="url(#linearGradient-71)" mask="url(#mask-70)"></path>
                </g>
                <g id="Group-87" transform="translate(0.000000, 26.315789)">
                    <mask id="mask-73" fill="white">
                        <use xlink:href="#path-72"></use>
                    </mask>
                    <g id="Clip-86"></g>
                    <path d="M5.62863636,4.40263158 C5.62863636,9.32631579 7.64809091,13.7789474 10.9092727,16.9763158 L14.6028182,13.2236842 C12.3144545,10.9815789 10.8960909,7.85789474 10.8960909,4.40263158 L5.62863636,4.40263158" id="Fill-85" fill="url(#linearGradient-74)" mask="url(#mask-73)"></path>
                </g>
                <g id="Group-90" transform="translate(10.545455, 36.842105)">
                    <mask id="mask-76" fill="white">
                        <use xlink:href="#path-75"></use>
                    </mask>
                    <g id="Clip-89"></g>
                    <path d="M0.253090909,6.34210526 C3.48263636,9.56578947 7.95654545,11.5473684 12.8944545,11.5026316 L12.8496364,6.24473684 C12.8127273,6.24473684 12.7784545,6.24473684 12.7415455,6.24473684 C9.31954545,6.24473684 6.22181818,4.86052632 3.98090909,2.62105263 L0.253090909,6.34210526" id="Fill-88" fill="url(#linearGradient-77)" mask="url(#mask-76)"></path>
                </g>
                <g id="Group-93" transform="translate(21.090909, 36.842105)">
                    <mask id="mask-79" fill="white">
                        <use xlink:href="#path-78"></use>
                    </mask>
                    <g id="Clip-92"></g>
                    <path d="M2.19609091,6.24473684 L2.19609091,11.5052632 C7.90118182,11.5052632 12.9761818,8.80263158 16.2057273,4.61052632 L12.0244545,1.40526316 C9.75718182,4.35 6.20072727,6.24473684 2.19609091,6.24473684" id="Fill-91" mask="url(#mask-79)"></path>
                </g>
                <polygon id="Fill-94" fill="#AAAAA3" points="22.272 32.9421053 40.7186364 32.9421053 40.7186364 27.6789474 22.272 27.6789474"></polygon>
                <g id="Group-97" transform="translate(60.636364, 10.526316)">
                    <mask id="mask-81" fill="white">
                        <use xlink:href="#path-80"></use>
                    </mask>
                    <g id="Clip-96"></g>
                    <path d="M2.50981818,7.83421053 C7.59272727,7.91315789 11.7344545,11.9447368 11.7344545,17.1447368 L11.7344545,18.8736842 L17.0045455,18.8736842 L17.0045455,17.1447368 C17.0045455,9.05789474 10.5032727,2.65263158 2.50981818,2.57105263 L2.50981818,7.83421053" id="Fill-95" fill="url(#linearGradient-82)" mask="url(#mask-81)"></path>
                </g>
                <g id="Group-100" transform="translate(50.090909, 10.526316)">
                    <mask id="mask-84" fill="white">
                        <use xlink:href="#path-83"></use>
                    </mask>
                    <g id="Clip-99"></g>
                    <path d="M1.17054545,7.37368421 L1.17054545,18.0578947 C1.96409091,13.8342105 5.713,7.83157895 12.8997273,7.83157895 C13.0341818,7.83157895 13.1633636,7.83421053 13.2951818,7.84210526 L13.2951818,2.57631579 C13.166,2.57368421 13.0368182,2.57105263 12.905,2.57105263 C8.31509091,2.57105263 4.18654545,4.40526316 1.17054545,7.37368421" id="Fill-98" fill="url(#linearGradient-85)" mask="url(#mask-84)"></path>
                </g>
                <g id="Group-103" transform="translate(108.090909, 15.789474)">
                    <mask id="mask-87" fill="white">
                        <use xlink:href="#path-86"></use>
                    </mask>
                    <g id="Clip-102"></g>
                    <path d="M1.12836364,6.07631579 C2.73127273,7.63684211 3.90181818,9.60263158 4.46863636,11.8315789 C4.495,11.9473684 4.68481818,12.7394737 4.71645455,12.9368421 C4.727,13 4.727,13 4.76127273,13.1947368 C4.77972727,13.3315789 4.80081818,13.4710526 4.814,13.6105263 L5.05918182,13.6105263 L5.05918182,2.50526316 C4.97218182,2.41578947 4.88518182,2.34210526 4.80081818,2.25789474 L1.12836364,6.07631579" id="Fill-101" fill="url(#linearGradient-88)" mask="url(#mask-87)"></path>
                </g>
                <polygon id="Fill-104" fill="#AAAAA3" points="112.904909 47.8131579 118.175 47.8131579 118.175 29.3973684 112.904909 29.3973684"></polygon>
                <polygon id="Fill-105" points="112.904909 29.4 118.175 29.4 118.175 1.51578947 112.904909 1.51578947"></polygon>
                <g id="Group-109" transform="translate(210.909091, 10.526316)">
                    <mask id="mask-90" fill="white">
                        <use xlink:href="#path-89"></use>
                    </mask>
                    <g id="Clip-108"></g>
                    <path d="M1.13890909,2.56842105 L1.18636364,7.82894737 C1.22063636,7.82631579 1.25754545,7.82631579 1.29445455,7.82631579 C4.69536364,7.82631579 7.79309091,9.2 10.0419091,11.4184211 C11.9875455,13.3736842 13.3347273,15.9736842 13.6405455,18.8736842 L13.8962727,18.8736842 L13.8962727,7.79473684 C13.8830909,7.78157895 13.8725455,7.77105263 13.8593636,7.75789474 C13.8567273,7.75526316 13.8567273,7.75263158 13.8540909,7.75 C13.8382727,7.73684211 13.8224545,7.71842105 13.8092727,7.70263158 L13.8066364,7.70526316 C10.6060909,4.55263158 6.13745455,2.56578947 1.29445455,2.56578947 C1.24436364,2.56578947 1.189,2.56842105 1.13890909,2.56842105" id="Fill-107" fill="url(#linearGradient-91)" mask="url(#mask-90)"></path>
                </g>
                <polygon id="Fill-110" points="224.549636 29.4 229.819727 29.4 229.819727 13.8657895 224.549636 13.8657895"></polygon>
                <polygon id="Fill-112" fill="#AAAAA3" points="224.549636 47.8131579 229.819727 47.8131579 229.819727 29.3973684 224.549636 29.3973684"></polygon>
            </g>
        </g>
    </g>
</svg>