<?xml version="1.0" encoding="UTF-8" standalone="no"?>
<svg
   xmlns:dc="http://purl.org/dc/elements/1.1/"
   xmlns:cc="http://creativecommons.org/ns#"
   xmlns:rdf="http://www.w3.org/1999/02/22-rdf-syntax-ns#"
   xmlns:svg="http://www.w3.org/2000/svg"
   xmlns="http://www.w3.org/2000/svg"
   xmlns:sodipodi="http://sodipodi.sourceforge.net/DTD/sodipodi-0.dtd"
   xmlns:inkscape="http://www.inkscape.org/namespaces/inkscape"
   id="Capa_1"
   data-name="Capa 1"
   viewBox="0 0 44.92 60"
   version="1.1"
   sodipodi:docname="atletico-madrid-logo.svg"
   inkscape:export-filename="C:\Users\suitedoalex\Downloads\atletico-madrid-logo-7.png"
   inkscape:export-xdpi="106.80794"
   inkscape:export-ydpi="106.80794"
   inkscape:version="0.92.2 (5c3e80d, 2017-08-06)">
  <metadata
     id="metadata23">
    <rdf:RDF>
      <cc:Work
         rdf:about="">
        <dc:format>image/svg+xml</dc:format>
        <dc:type
           rdf:resource="http://purl.org/dc/dcmitype/StillImage" />
      </cc:Work>
    </rdf:RDF>
  </metadata>
  <sodipodi:namedview
     pagecolor="#ffffff"
     bordercolor="#666666"
     borderopacity="1"
     objecttolerance="10"
     gridtolerance="10"
     guidetolerance="10"
     inkscape:pageopacity="0"
     inkscape:pageshadow="2"
     inkscape:window-width="1600"
     inkscape:window-height="837"
     id="namedview21"
     showgrid="false"
     inkscape:zoom="3.9333333"
     inkscape:cx="22.459999"
     inkscape:cy="30"
     inkscape:window-x="-8"
     inkscape:window-y="-8"
     inkscape:window-maximized="1"
     inkscape:current-layer="Capa_1" />
  <defs
     id="defs4">
    <style
       id="style2">.cls-1{fill:#fff;}.cls-2{fill:#cb3524;}.cls-3{fill:#272e61;}</style>
  </defs>
  <title
     id="title6">atm_escudo_60</title>
  <path
     class="cls-1"
     d="M52.41,6c0-2.4-1.65-3-3.89-3.59a74.85,74.85,0,0,0-37.28,0C9.14,2.81,7.5,3.56,7.5,6V38.74h0a8.87,8.87,0,0,0,3.44,6.89L28.61,59,30,60l1.35-1L49,45.63a8.44,8.44,0,0,0,3.44-6.89Z"
     transform="translate(-7.5 0)"
     id="path8" />
  <path
     class="cls-2"
     d="M14.53,37.54l-2.25,1.8-2.4,1.8a7.23,7.23,0,0,0,2.1,3h0l2.55,1.95Z"
     transform="translate(-7.5 0)"
     id="path10" />
  <polygon
     class="cls-2"
     points="13.18 32.9 13.18 32.9 13.18 50.72 19.31 55.51 19.31 28.11 13.18 32.9"
     id="polygon12" />
  <polygon
     class="cls-2"
     points="31.74 18.68 31.74 18.68 25.45 23.47 25.45 55.51 31.74 50.87 31.74 18.68"
     id="polygon14" />
  <path
     class="cls-2"
     d="M50.46,35.3V10l-1.35,1-3.74,2.84V46.08l2.55-1.95h0a4.56,4.56,0,0,0,1.2-1.2A6.46,6.46,0,0,0,50.46,39Z"
     transform="translate(-7.5 0)"
     id="path16" />
  <path
     class="cls-3"
     d="M52.41,6c0-2.4-1.65-3-3.89-3.59a74.85,74.85,0,0,0-37.28,0C9.14,2.81,7.5,3.56,7.5,6V38.74h0a8.87,8.87,0,0,0,3.44,6.89L28.61,59,30,60l1.35-1L49,45.63a8.44,8.44,0,0,0,3.44-6.89Zm-5.24-.3L47.77,4l.6,1.65H50l-1.35,1,.6,1.65-1.35-1-1.35,1h0l.6-1.65-1.35-1ZM34.89,10.59a1.86,1.86,0,0,0,.9-1.2c1.95.6,4.19-.6,3.74-2.69H40l1.35.15,1.35.3-11.83,9v-6c1.95,1,3.29,1,4,.45m2.4,8.53h0l-1.35-1-1.5,1,.6-1.65-1.5-1h1.8l.6-1.65.6,1.65h1.8l-1.35,1Zm-10-15.87h1.8l.6-1.65L30,3.26h1.8l-1.35,1L30.85,6l-1.35-1L28,6l.6-1.65ZM13.78,8h0l2.1-.45L18,7.15c0,.15,0,.3.15.3h0a3.62,3.62,0,0,0,4.49,1.8,3.21,3.21,0,0,0,2.4,1.5,6,6,0,0,0,2.84-.3v7.94l-7.34,5.69v-.75a4.17,4.17,0,0,0,1.8-2.69A3,3,0,0,0,22.47,19c-.15,0-.3.15-.45.15h-.75a1.63,1.63,0,0,0,1.35-.6l.3-.3A4.34,4.34,0,0,0,24.26,16l1.5-4a2.4,2.4,0,0,0-1.65.75l-.6.9-.6.9c-.15.3-.45.45-.6.6l-.9-.75h-.15L21,12.69l.6-1a1.36,1.36,0,0,0,0-1.5h-.45l-1.5.9-.15-.15h-.3c-.15,0-.3.15-.45.3l-.3.3-.45.3h-.9c-.3,0-.45.45-.15.9a2,2,0,0,1,.45,1.2h0V14a5.09,5.09,0,0,1,.15,1.5A15.28,15.28,0,0,1,16,21.22l-.15.15-.6,1a.46.46,0,0,0,0,.6.55.55,0,0,0,.45.15,5.9,5.9,0,0,1,.75,2.1,5,5,0,0,1-.15,2.1l-1.2.9-1.35,1ZM26.06,25.12l-1.35,1,.6,1.65-1.35-1-1.35,1,.6-1.65-1.35-1h1.8l.6-1.65.6,1.65ZM8.54,5.65h1.65L10.79,4l.6,1.65h1.8l-1.5,1,.6,1.65-1.5-1-1.5,1h0l.6-1.65ZM13,19.73l-1.35,1,.45,1.65-1.35-1-1.5,1,.6-1.65-1.35-1h1.8l.6-1.65h0l.6,1.65ZM9.29,37.24l.6-1.65-1.35-1h1.8l.45-1.65.6,1.65h1.8l-1.35,1,.6,1.65h0l-1.35-1-1.8,1Zm39.83,5.69a4.56,4.56,0,0,1-1.2,1.2h0L30,57.75,12,44.13h0a5.28,5.28,0,0,1-2.1-3l2.4-1.8,2.25-1.8,6.14-4.64,6.14-4.64,6.14-4.64L39.09,19l6.14-4.64,5.24-3.89v29a5.58,5.58,0,0,1-1.35,3.44"
     transform="translate(-7.5 0)"
     id="path18" />
</svg>
